<svg id="Layer_1" data-name="Layer 1" xmlns="http://www.w3.org/2000/svg" viewBox="0 0 1052 393"><defs><style>.cls-1,.cls-5{fill:#6c150e;}.cls-1,.cls-2{fill-rule:evenodd;}.cls-2,.cls-3,.cls-4{fill:#111;}.cls-3{font-size:65.87px;font-family:HelveticaNeueLTStd-Md, Helvetica Neue LT Std;letter-spacing:-0.01em;}.cls-4{font-size:58.02px;font-family:HelveticaNeueLTStd-Lt, Helvetica Neue LT Std;letter-spacing:-0.04em;}</style></defs><title>2018 logo igarape</title><path class="cls-1" d="M285.15,215.82c-8.62,10.77-17.2,20.73-28.49,46.86-1.42,3.28-4.9,9.48-9,16.6q3.13-2.45,6.06-5.15c2.42-4.28,4.33-7.85,5.29-10.07,9.82-22.73,17.59-33.22,25.12-42.66q.61-2.77,1.06-5.59Zm1.26-19.08c0,.95,0,1.9,0,2.85,0,.31,0,.62,0,.92-13,20.63-23.6,25.07-39.68,62.26-2.06,4.77-8.49,15.71-15,26.67q-2.17,1.12-4.39,2.14c7.12-12.05,14.76-24.91,17-30.2,16.76-38.78,27.53-41.94,41.37-65l.59.35Zm-70.66,99.34q-1.87.59-3.77,1.1c7.87-13.4,17.64-29.58,20.27-35.67,16.76-38.78,27.53-41.94,41.37-65l2.31,1.38c-13.84,23.06-24.6,26.22-41.37,65-2.47,5.72-11.24,20.33-18.81,33.19Zm-14.1,3.35c-1.13.18-2.27.36-3.41.5,8.08-13.83,19-31.8,21.81-38.3,16.76-38.78,27.53-41.94,41.37-65l2.31,1.38c-13.84,23.06-24.6,26.22-41.37,65-2.68,6.21-12.77,22.88-20.71,36.41Zm-12.87,1.26c-1,0-2.1.06-3.15.06,8.11-13.92,19.36-32.38,22.22-39,16.76-38.78,27.53-41.94,41.37-65l2.31,1.38c-13.84,23.06-24.6,26.22-41.37,65-2.76,6.38-13.34,23.83-21.37,37.55Zm-12-.29q-1.48-.12-2.95-.29c8.07-13.82,19-31.74,21.77-38.23,16.76-38.78,27.53-41.94,41.37-65l2.31,1.39c-13.84,23.06-24.6,26.22-41.37,65-2.73,6.32-13.13,23.48-21.13,37.14Zm-11.21-1.57q-1.39-.28-2.78-.59c7.92-13.51,17.94-30.07,20.61-36.25C200.2,223.21,211,220,224.81,197l2.31,1.39c-13.84,23.06-24.6,26.22-41.37,65-2.62,6.06-12.3,22.1-20.14,35.45ZM155,296.15q-1.32-.41-2.62-.86c7.57-12.85,16.33-27.46,18.81-33.18,16.76-38.78,27.53-41.94,41.37-65l2.31,1.38c-13.84,23.06-24.6,26.22-41.37,65-2.44,5.64-11,19.93-18.5,32.65Zm-9.95-3.71q-1.24-.54-2.47-1.11c6.93-11.73,14.19-24,16.4-29.1,16.76-38.78,27.53-41.94,41.37-65l2.31,1.38c-13.84,23.06-24.6,26.22-41.37,65-2.2,5.08-9.36,17.18-16.24,28.83Zm-9.38-4.66q-1.17-.66-2.33-1.35c5.93-10.05,11.54-19.69,13.44-24.08,16.76-38.78,27.53-41.94,41.37-65l2.31,1.39c-13.84,23.06-24.6,26.22-41.37,65-1.9,4.39-7.49,14-13.42,24Zm-8.84-5.6q-1.1-.78-2.19-1.59c4.53-7.75,8.42-14.61,9.93-18.12,16.76-38.78,27.53-41.94,41.37-65l2.31,1.39c-13.84,23.06-24.6,26.22-41.37,65-1.53,3.54-5.48,10.5-10.06,18.33Zm-8.32-6.58q-1-.91-2-1.85c2.71-4.77,4.87-8.76,5.91-11.16,16.76-38.78,27.53-41.94,41.37-65L166.1,199c-13.84,23.06-24.6,26.22-41.37,65-1.07,2.49-3.34,6.66-6.18,11.63Zm-7.88-7.72q-1-1.06-1.91-2.15c.6-1.18,1.1-2.2,1.46-3,16.76-38.78,27.53-41.94,41.37-65l2.31,1.38c-13.84,23.06-24.6,26.22-41.37,65-.44,1-1.07,2.29-1.85,3.79Zm-7.74-9.55q-.9-1.26-1.77-2.56c15-32.22,25.12-36.14,38.07-57.72l2.45,1.15C128.59,221,118.24,225,102.94,258.34Zm-6.6-10.54c-.52-1-1-1.92-1.5-2.88,12-22,21.15-27.61,32.34-46.26l2.31,1.38c-11.44,19.06-20.78,24.53-33.14,47.76Zm-5.19-11.11c-.41-1-.79-2.07-1.16-3.12,8.64-12.82,16.19-19.44,25-34.09l2.31,1.39c-9.18,15.29-17,21.84-26.13,35.82ZM87.4,225.13q-.43-1.64-.79-3.29c5.29-6.63,10.47-12.75,16.17-22.24l2.31,1.38c-6.24,10.4-11.86,16.75-17.68,24.15ZM85,212.81c-.17-1.31-.31-2.63-.43-4,2-2.73,3.94-5.72,6-9.15l2.31,1.38A137.34,137.34,0,0,1,85,212.81Z"/><path class="cls-2" d="M185.3,98.44l2.17,0c8,13.06,17.74,28.49,20.44,34.41,17,37.39,27.74,41.21,41.46,62.35q4.67,0,9.11.07c-13.33-20.06-23.95-24.46-40.65-61.1-2.74-6-12.74-21.87-20.84-35.07,1.15.13,2.3.28,3.44.45,7.88,12.79,17.08,27.46,19.69,33.19,17.1,37.53,27.82,41.24,41.61,62.58q4.77.08,9.21.22c-13.45-20.39-24.1-24.61-40.9-61.49-2.56-5.61-11.42-19.78-19.18-32.37q1.93.5,3.83,1.08c7.35,11.91,15.25,24.62,17.63,29.86,17.22,37.79,28,41.28,41.9,63,3.29.12,6.42.27,9.37.46-13.66-21-24.36-24.89-41.35-62.18-2.18-4.78-9-15.8-15.71-26.75q2.27,1,4.48,2.13c6,9.71,11.57,18.92,13.51,23.18,17.2,37.74,27.94,41.28,41.85,62.95.06,1.37.09,2.75.09,4.13v.17c-47.63-3.43-149.46,2.1-202.23,3.55,0-1.14-.07-2.29-.07-3.44,28.74-.79,72.12-2.79,113.37-3.9-2.07-3.13-4.08-5.87-6.06-8.42-22,.57-62.31,2.89-74.07,2.3-13-.64-23.59-.73-32.74-.47q.14-1.36.31-2.72c9.1-.26,19.68-.17,32.54.47,11.38.57,49.49-1.58,71.86-2.24-2.43-3-4.84-5.83-7.27-8.77-21.57.87-47.77,2.15-56.87,1.7-15.86-.79-28.26-.75-38.68-.24q.3-1.37.64-2.74c10.31-.49,22.56-.51,38.15.26,8.79.44,33.51-.74,54.62-1.61-2-2.48-4-5.11-6.11-8.09-16.59.69-32.6,1.3-39.31,1a366.69,366.69,0,0,0-44.86.13q.48-1.4,1-2.77a369.76,369.76,0,0,1,44-.07c6.45.32,21.49-.23,37.39-.89-1.52-2.27-3.09-4.75-4.7-7.5-10.27.37-19,.57-23.5.35-22-1.09-37.32-.59-49.94.54q.68-1.42,1.39-2.82c12.37-1.06,27.42-1.49,48.66-.43,4.27.21,12.3,0,21.85-.29-1.27-2.25-2.57-4.67-3.91-7.29-3.65.05-6.65,0-8.75-.06-24.27-1.21-40.44-.47-53.79.92q.91-1.46,1.86-2.89c13-1.27,28.83-1.9,52-.74,1.81.09,4.29.11,7.28.08-1.21-2.45-2.46-5.08-3.74-7.89l0-.07c-22.35-.89-37.48-.06-50.18,1.34q1.22-1.5,2.49-3a324.94,324.94,0,0,1,46.3-1.15c-1.16-2.17-2.73-4.89-4.54-7.94a294.45,294.45,0,0,0-34.57,1.67q1.67-1.56,3.42-3.05a295.54,295.54,0,0,1,29.52-1.33c-1.41-2.35-2.94-4.84-4.5-7.39-5.35.21-10.18.55-14.67,1q2.5-1.64,5.1-3.13c2.53-.19,5.16-.35,7.95-.48l-1.73-2.8q1.22-.59,2.46-1.14c6.61,10.71,13.14,21.36,15.28,26,17.09,37.51,27.81,41.23,41.59,62.55l8.92-.22c-13.3-20-23.91-24.43-40.59-61-2.42-5.3-10.47-18.25-17.9-30.29q1.3-.47,2.61-.9c7.34,11.89,15.19,24.54,17.57,29.76,17,37.41,27.75,41.21,41.48,62.38l9-.17c-13.27-19.89-23.87-24.38-40.51-60.9-2.62-5.74-11.85-20.46-19.74-33.27q1.38-.33,2.77-.63c7.78,12.62,16.68,26.85,19.25,32.47,17,37.35,27.72,41.2,41.42,62.28l9-.11c-13.25-19.85-23.85-24.36-40.48-60.86-2.75-6-12.79-22-20.91-35.18,1-.12,2-.23,3-.33,8,13,17.56,28.21,20.23,34.08,17,37.34,27.71,41.2,41.4,62.26q4.6,0,9,0c-13.27-19.9-23.87-24.38-40.52-60.91-2.79-6.13-13.14-22.5-21.32-35.85Zm61.43,20.79q3.23,2.47,6.25,5.19c2.34,4,4.18,7.28,5.14,9.38,10,22,17.84,32.35,25.38,41.47q.69,2.78,1.22,5.63c-8.66-10.36-17.31-20.27-28.88-45.66-1.45-3.19-4.95-9.14-9.11-16Z"/><text class="cls-3" transform="translate(313.32 198.52)">INSTITUTO IGARAPÉ </text><text class="cls-4" transform="translate(316.61 255.77)">a think and <tspan class="cls-5" x="266.53" y="0">do</tspan><tspan x="327.8" y="0" xml:space="preserve"> tank</tspan></text></svg>