<svg id="Layer_1" data-name="Layer 1" xmlns="http://www.w3.org/2000/svg" viewBox="0 0 824 530"><defs><style>.cls-1,.cls-5{fill:#6c150e;}.cls-1,.cls-2{fill-rule:evenodd;}.cls-2,.cls-3,.cls-4{fill:#111;}.cls-3{font-size:66.29px;font-family:HelveticaNeueLTStd-Md, Helvetica Neue LT Std;letter-spacing:-0.01em;}.cls-4{font-size:58.39px;font-family:HelveticaNeueLTStd-Lt, Helvetica Neue LT Std;letter-spacing:-0.04em;}</style></defs><title>2018 logo igarape</title><path class="cls-1" d="M519.6,211.73c-8.68,10.84-17.31,20.86-28.67,47.16-1.43,3.3-4.93,9.54-9.1,16.71q3.15-2.47,6.1-5.18c2.44-4.31,4.36-7.9,5.33-10.13,9.89-22.87,17.7-33.43,25.28-42.93q.61-2.78,1.07-5.62Zm1.27-19.2c0,1,0,1.91,0,2.87,0,.31,0,.62,0,.93C507.78,217.1,497.15,221.56,481,259c-2.07,4.8-8.55,15.81-15.06,26.84Q463.74,287,461.5,288c7.16-12.13,14.86-25.07,17.15-30.39,16.87-39,27.7-42.21,41.63-65.41l.59.35Zm-71.11,100q-1.88.59-3.8,1.11c7.92-13.48,17.75-29.77,20.4-35.9,16.87-39,27.7-42.21,41.63-65.41l2.32,1.39c-13.93,23.21-24.76,26.39-41.63,65.41-2.49,5.76-11.31,20.46-18.93,33.4Zm-14.19,3.37c-1.14.19-2.28.36-3.43.51,8.13-13.92,19.12-32,22-38.54,16.87-39,27.7-42.21,41.63-65.41l2.32,1.39c-13.93,23.21-24.76,26.39-41.63,65.41-2.7,6.25-12.85,23-20.84,36.64Zm-13,1.26c-1.05,0-2.11.06-3.17.06,8.17-14,19.48-32.59,22.36-39.24,16.87-39,27.7-42.21,41.63-65.41l2.32,1.39c-13.93,23.21-24.76,26.39-41.63,65.41-2.78,6.42-13.43,24-21.51,37.79Zm-12-.29q-1.49-.12-3-.29c8.13-13.91,19.09-31.95,21.91-38.48,16.87-39,27.7-42.21,41.63-65.41l2.32,1.39c-13.93,23.21-24.76,26.39-41.63,65.41-2.75,6.36-13.22,23.63-21.27,37.38Zm-11.29-1.58q-1.4-.28-2.79-.59c8-13.59,18.05-30.26,20.74-36.48,16.87-39,27.7-42.21,41.63-65.41l2.32,1.39c-13.93,23.21-24.76,26.39-41.63,65.41-2.64,6.1-12.38,22.24-20.27,35.68Zm-10.62-2.7q-1.32-.41-2.63-.87c7.62-12.93,16.44-27.63,18.93-33.39,16.87-39,27.7-42.21,41.63-65.41l2.32,1.39c-13.93,23.21-24.76,26.39-41.63,65.41-2.46,5.68-11.07,20.06-18.61,32.86Zm-10-3.73q-1.25-.54-2.48-1.12c7-11.81,14.28-24.13,16.51-29.29,16.87-39,27.7-42.21,41.63-65.41l2.32,1.39c-13.93,23.21-24.76,26.39-41.63,65.41-2.21,5.12-9.42,17.29-16.34,29Zm-9.44-4.69q-1.18-.67-2.34-1.36c6-10.12,11.61-19.81,13.52-24.24,16.87-39,27.7-42.21,41.63-65.41l2.32,1.39c-13.93,23.21-24.76,26.39-41.63,65.41-1.91,4.42-7.54,14.1-13.5,24.2Zm-8.9-5.63q-1.11-.79-2.2-1.6c4.56-7.8,8.47-14.7,10-18.24,16.87-39,27.7-42.21,41.63-65.41l2.32,1.39c-13.93,23.2-24.76,26.39-41.63,65.41-1.54,3.57-5.51,10.57-10.12,18.45Zm-8.38-6.63q-1-.92-2.06-1.86c2.73-4.8,4.9-8.81,6-11.24,16.87-39,27.7-42.21,41.63-65.41l2.32,1.39C385.86,218,375,221.16,358.16,260.19c-1.08,2.5-3.36,6.7-6.22,11.7ZM344,264.12q-1-1.07-1.93-2.16c.61-1.18,1.1-2.21,1.47-3.05,16.87-39,27.7-42.21,41.63-65.41l2.32,1.39c-13.93,23.21-24.76,26.39-41.63,65.41-.44,1-1.07,2.31-1.86,3.82Zm-7.78-9.61q-.91-1.27-1.78-2.57c15.1-32.43,25.28-36.37,38.31-58.09l2.47,1.16c-13.19,22-23.6,26-39,59.5Zm-6.64-10.61c-.52-1-1-1.93-1.51-2.9,12-22.12,21.28-27.79,32.54-46.55l2.32,1.39C351.43,215,342,220.52,329.59,243.9Zm-5.22-11.18c-.41-1-.79-2.08-1.17-3.14,8.69-12.9,16.29-19.57,25.14-34.31l2.32,1.39c-9.24,15.39-17.11,22-26.29,36.05Zm-3.78-11.62q-.43-1.65-.8-3.31c5.32-6.67,10.54-12.83,16.27-22.39l2.32,1.39c-6.28,10.47-11.93,16.86-17.8,24.31Zm-2.41-12.4c-.17-1.32-.31-2.64-.44-4,2-2.75,4-5.75,6-9.2l2.32,1.39a138.21,138.21,0,0,1-7.92,11.79Z"/><path class="cls-2" d="M419.11,93.6l2.18,0c8.08,13.15,17.86,28.68,20.57,34.63C459,165.89,469.79,169.73,483.59,191q4.7,0,9.17.07c-13.42-20.19-24.1-24.61-40.91-61.5-2.76-6.05-12.82-22-21-35.29,1.16.13,2.31.28,3.46.45,7.93,12.87,17.19,27.63,19.81,33.4,17.21,37.77,28,41.5,41.88,63q4.8.08,9.27.22c-13.54-20.52-24.25-24.77-41.16-61.88-2.57-5.64-11.49-19.9-19.3-32.57q1.94.51,3.85,1.09c7.4,12,15.34,24.78,17.75,30,17.33,38,28.15,41.55,42.17,63.43,3.31.12,6.46.28,9.43.46-13.75-21.12-24.52-25-41.61-62.57-2.19-4.81-9-15.9-15.81-26.92q2.28,1,4.51,2.15c6,9.77,11.65,19,13.6,23.33,17.31,38,28.12,41.54,42.11,63.35.06,1.38.09,2.76.09,4.16v.18c-47.93-3.45-150.41,2.12-203.52,3.58,0-1.15-.07-2.31-.07-3.46,28.93-.79,72.59-2.81,114.1-3.93-2.09-3.15-4.11-5.91-6.1-8.47-22.12.58-62.71,2.9-74.55,2.32-13-.65-23.74-.74-32.95-.47q.14-1.37.31-2.73c9.16-.26,19.81-.17,32.75.48,11.45.57,49.8-1.59,72.32-2.25-2.45-3-4.87-5.86-7.32-8.83-21.71.87-48.07,2.16-57.23,1.71-16-.79-28.44-.75-38.93-.24q.31-1.38.65-2.75c10.37-.49,22.7-.52,38.39.26,8.84.44,33.72-.75,55-1.62-2-2.49-4-5.14-6.15-8.14-16.7.7-32.81,1.31-39.56,1a369,369,0,0,0-45.15.13q.49-1.4,1-2.79a372.13,372.13,0,0,1,44.25-.07c6.49.32,21.63-.23,37.63-.89-1.53-2.29-3.11-4.78-4.73-7.54-10.33.37-19.11.57-23.65.35-22.12-1.1-37.56-.6-50.26.55q.68-1.43,1.4-2.84c12.45-1.06,27.59-1.5,49-.44,4.3.21,12.38,0,22-.29-1.28-2.26-2.59-4.7-3.93-7.34-3.67.05-6.7,0-8.8-.06-24.42-1.21-40.7-.47-54.14.93q.91-1.47,1.87-2.91c13.1-1.28,29-1.91,52.38-.75,1.82.09,4.32.11,7.33.08-1.22-2.47-2.48-5.11-3.76-7.94l0-.07c-22.49-.9-37.72-.06-50.5,1.35q1.22-1.51,2.5-3a327,327,0,0,1,46.6-1.16c-1.17-2.18-2.75-4.92-4.57-8A296.33,296.33,0,0,0,349.64,121q1.68-1.57,3.44-3.07a297.43,297.43,0,0,1,29.71-1.34c-1.42-2.36-3-4.87-4.53-7.43-5.39.22-10.25.55-14.77,1q2.52-1.65,5.14-3.15c2.54-.19,5.2-.35,8-.48l-1.74-2.82q1.23-.59,2.47-1.15c6.65,10.78,13.23,21.49,15.37,26.21,17.2,37.75,28,41.5,41.85,62.95l9-.22c-13.39-20.12-24.07-24.58-40.85-61.41-2.43-5.34-10.54-18.37-18-30.49q1.3-.47,2.63-.9c7.38,12,15.29,24.69,17.68,29.95,17.15,37.65,27.93,41.48,41.75,62.78l9-.17c-13.35-20-24-24.54-40.77-61.29-2.63-5.78-11.93-20.59-19.87-33.49q1.39-.33,2.79-.63c7.83,12.7,16.79,27,19.37,32.68C434.43,166.09,445.2,170,459,191.18l9-.11c-13.34-20-24-24.52-40.74-61.25-2.77-6.07-12.88-22.1-21-35.41,1-.12,2-.23,3-.33,8,13.08,17.68,28.39,20.36,34.29C446.71,166,457.47,169.84,471.25,191q4.63,0,9.1,0c-13.36-20-24-24.54-40.78-61.3-2.81-6.17-13.22-22.65-21.46-36.08Zm61.83,20.93q3.25,2.49,6.29,5.23c2.35,4,4.21,7.32,5.17,9.44,10.08,22.12,18,32.56,25.54,41.73q.69,2.8,1.23,5.66c-8.71-10.43-17.42-20.4-29.06-46-1.46-3.21-5-9.2-9.17-16.1Z"/><text class="cls-3" transform="translate(89.83 377.53)">INSTITUTO IGARAPÉ </text><text class="cls-4" transform="translate(196.07 435.15)">a think and <tspan class="cls-5" x="268.24" y="0">do</tspan><tspan x="329.9" y="0" xml:space="preserve"> tank</tspan></text></svg>