<svg style="position: absolute; width: 0; height: 0;" width="0" height="0" version="1.1" xmlns="http://www.w3.org/2000/svg" xmlns:xlink="http://www.w3.org/1999/xlink">
<defs>
<symbol id="icon-asterisk" viewBox="0 0 26 28">
<title>asterisk</title>
<path class="path1" d="M23.156 16.406q0.719 0.406 0.93 1.211t-0.195 1.523l-1 1.719q-0.406 0.719-1.211 0.93t-1.523-0.195l-4.156-2.391v4.797q0 0.812-0.594 1.406t-1.406 0.594h-2q-0.812 0-1.406-0.594t-0.594-1.406v-4.797l-4.156 2.391q-0.719 0.406-1.523 0.195t-1.211-0.93l-1-1.719q-0.406-0.719-0.195-1.523t0.93-1.211l4.156-2.406-4.156-2.406q-0.719-0.406-0.93-1.211t0.195-1.523l1-1.719q0.406-0.719 1.211-0.93t1.523 0.195l4.156 2.391v-4.797q0-0.812 0.594-1.406t1.406-0.594h2q0.812 0 1.406 0.594t0.594 1.406v4.797l4.156-2.391q0.719-0.406 1.523-0.195t1.211 0.93l1 1.719q0.406 0.719 0.195 1.523t-0.93 1.211l-4.156 2.406z"></path>
</symbol>
<symbol id="icon-twitter" viewBox="0 0 26 28">
<title>twitter</title>
<path class="path1" d="M25.312 6.375q-1.047 1.531-2.531 2.609 0.016 0.219 0.016 0.656 0 2.031-0.594 4.055t-1.805 3.883-2.883 3.289-4.031 2.281-5.047 0.852q-4.234 0-7.75-2.266 0.547 0.063 1.219 0.063 3.516 0 6.266-2.156-1.641-0.031-2.938-1.008t-1.781-2.492q0.516 0.078 0.953 0.078 0.672 0 1.328-0.172-1.75-0.359-2.898-1.742t-1.148-3.211v-0.063q1.062 0.594 2.281 0.641-1.031-0.688-1.641-1.797t-0.609-2.406q0-1.375 0.688-2.547 1.891 2.328 4.602 3.727t5.805 1.555q-0.125-0.594-0.125-1.156 0-2.094 1.477-3.57t3.57-1.477q2.188 0 3.687 1.594 1.703-0.328 3.203-1.219-0.578 1.797-2.219 2.781 1.453-0.156 2.906-0.781z"></path>
</symbol>
<symbol id="icon-facebook" viewBox="0 0 16 28">
<title>facebook</title>
<path class="path1" d="M14.984 0.187v4.125h-2.453q-1.344 0-1.813 0.562t-0.469 1.687v2.953h4.578l-0.609 4.625h-3.969v11.859h-4.781v-11.859h-3.984v-4.625h3.984v-3.406q0-2.906 1.625-4.508t4.328-1.602q2.297 0 3.563 0.187z"></path>
</symbol>
<symbol id="icon-github" viewBox="0 0 24 28">
<title>github</title>
<path class="path1" d="M12 2q3.266 0 6.023 1.609t4.367 4.367 1.609 6.023q0 3.922-2.289 7.055t-5.914 4.336q-0.422 0.078-0.625-0.109t-0.203-0.469q0-0.047 0.008-1.195t0.008-2.102q0-1.516-0.812-2.219 0.891-0.094 1.602-0.281t1.469-0.609 1.266-1.039 0.828-1.641 0.32-2.352q0-1.859-1.234-3.219 0.578-1.422-0.125-3.187-0.438-0.141-1.266 0.172t-1.437 0.688l-0.594 0.375q-1.453-0.406-3-0.406t-3 0.406q-0.25-0.172-0.664-0.422t-1.305-0.602-1.328-0.211q-0.703 1.766-0.125 3.187-1.234 1.359-1.234 3.219 0 1.328 0.32 2.344t0.82 1.641 1.258 1.047 1.469 0.609 1.602 0.281q-0.609 0.562-0.766 1.609-0.328 0.156-0.703 0.234t-0.891 0.078-1.023-0.336-0.867-0.977q-0.297-0.5-0.758-0.812t-0.773-0.375l-0.313-0.047q-0.328 0-0.453 0.070t-0.078 0.18 0.141 0.219 0.203 0.187l0.109 0.078q0.344 0.156 0.68 0.594t0.492 0.797l0.156 0.359q0.203 0.594 0.688 0.961t1.047 0.469 1.086 0.109 0.867-0.055l0.359-0.063q0 0.594 0.008 1.383t0.008 0.852q0 0.281-0.203 0.469t-0.625 0.109q-3.625-1.203-5.914-4.336t-2.289-7.055q0-3.266 1.609-6.023t4.367-4.367 6.023-1.609zM4.547 19.234q0.047-0.109-0.109-0.187-0.156-0.047-0.203 0.031-0.047 0.109 0.109 0.187 0.141 0.094 0.203-0.031zM5.031 19.766q0.109-0.078-0.031-0.25-0.156-0.141-0.25-0.047-0.109 0.078 0.031 0.25 0.156 0.156 0.25 0.047zM5.5 20.469q0.141-0.109 0-0.297-0.125-0.203-0.266-0.094-0.141 0.078 0 0.281t0.266 0.109zM6.156 21.125q0.125-0.125-0.063-0.297-0.187-0.187-0.313-0.047-0.141 0.125 0.063 0.297 0.187 0.187 0.313 0.047zM7.047 21.516q0.047-0.172-0.203-0.25-0.234-0.063-0.297 0.109t0.203 0.234q0.234 0.094 0.297-0.094zM8.031 21.594q0-0.203-0.266-0.172-0.25 0-0.25 0.172 0 0.203 0.266 0.172 0.25 0 0.25-0.172zM8.937 21.438q-0.031-0.172-0.281-0.141-0.25 0.047-0.219 0.234t0.281 0.125 0.219-0.219z"></path>
</symbol>
<symbol id="icon-google-plus" viewBox="0 0 36 28">
<title>google-plus</title>
<path class="path1" d="M22.453 14.266q0 3.25-1.359 5.789t-3.875 3.969-5.766 1.43q-2.328 0-4.453-0.906t-3.656-2.438-2.438-3.656-0.906-4.453 0.906-4.453 2.438-3.656 3.656-2.438 4.453-0.906q4.469 0 7.672 3l-3.109 2.984q-1.828-1.766-4.562-1.766-1.922 0-3.555 0.969t-2.586 2.633-0.953 3.633 0.953 3.633 2.586 2.633 3.555 0.969q1.297 0 2.383-0.359t1.789-0.898 1.227-1.227 0.766-1.297 0.336-1.156h-6.5v-3.938h10.813q0.187 0.984 0.187 1.906zM36 12.359v3.281h-3.266v3.266h-3.281v-3.266h-3.266v-3.281h3.266v-3.266h3.281v3.266h3.266z"></path>
</symbol>
<symbol id="icon-linkedin" viewBox="0 0 24 28">
<title>linkedin</title>
<path class="path1" d="M5.453 9.766v15.484h-5.156v-15.484h5.156zM5.781 4.984q0.016 1.141-0.789 1.906t-2.117 0.766h-0.031q-1.281 0-2.063-0.766t-0.781-1.906q0-1.156 0.805-1.914t2.102-0.758 2.078 0.758 0.797 1.914zM24 16.375v8.875h-5.141v-8.281q0-1.641-0.633-2.57t-1.977-0.93q-0.984 0-1.648 0.539t-0.992 1.336q-0.172 0.469-0.172 1.266v8.641h-5.141q0.031-6.234 0.031-10.109t-0.016-4.625l-0.016-0.75h5.141v2.25h-0.031q0.313-0.5 0.641-0.875t0.883-0.812 1.359-0.68 1.789-0.242q2.672 0 4.297 1.773t1.625 5.195z"></path>
</symbol>
<symbol id="icon-suitcase" viewBox="0 0 28 28">
<title>suitcase</title>
<path class="path1" d="M10 6h8v-2h-8v2zM4.5 6v20h-1q-1.437 0-2.469-1.031t-1.031-2.469v-13q0-1.437 1.031-2.469t2.469-1.031h1zM22 6v20h-16v-20h2v-2.5q0-0.625 0.438-1.062t1.062-0.438h9q0.625 0 1.062 0.438t0.438 1.062v2.5h2zM28 9.5v13q0 1.437-1.031 2.469t-2.469 1.031h-1v-20h1q1.437 0 2.469 1.031t1.031 2.469z"></path>
</symbol>
<symbol id="icon-html5" viewBox="0 0 22 28">
<title>html5</title>
<path class="path1" d="M17.656 9.328l0.25-2.734h-13.813l0.734 8.344h9.562l-0.344 3.563-3.078 0.828-3.063-0.828-0.203-2.188h-2.734l0.344 4.344 5.656 1.563h0.063v-0.016l5.609-1.547 0.781-8.5h-10.063l-0.234-2.828h10.531zM0 2h22l-2 22.469-9.031 2.531-8.969-2.531z"></path>
</symbol>
<symbol id="icon-css3" viewBox="0 0 28 28">
<title>css3</title>
<path class="path1" d="M4.297 2h23.516l-4.156 20.828-12.563 4.172-10.906-4.172 1.109-5.563h4.641l-0.453 2.297 6.594 2.516 7.594-2.516 1.062-5.297h-18.875l0.906-4.641h18.891l0.594-2.984h-18.875z"></path>
</symbol>
<symbol id="icon-dropbox" viewBox="0 0 28 28">
<title>dropbox</title>
<path class="path1" d="M6.281 11.047l7.719 4.766-5.344 4.453-7.656-4.984zM21.688 19.719v1.687l-7.656 4.578v0.016l-0.016-0.016-0.016 0.016v-0.016l-7.641-4.578v-1.687l2.297 1.5 5.344-4.438v-0.031l0.016 0.016 0.016-0.016v0.031l5.359 4.438zM8.656 1.844l5.344 4.453-7.719 4.75-5.281-4.219zM21.719 11.047l5.281 4.234-7.641 4.984-5.359-4.453zM19.359 1.844l7.641 4.984-5.281 4.219-7.719-4.75z"></path>
</symbol>
<symbol id="icon-stack-overflow" viewBox="0 0 24 28">
<title>stack-overflow</title>
<path class="path1" d="M20.141 25.5h-17.469v-7.5h-2.5v10h22.469v-10h-2.5v7.5zM5.422 17.313l0.516-2.453 12.234 2.578-0.516 2.438zM7.031 11.469l1.047-2.281 11.328 5.297-1.047 2.266zM10.172 5.906l1.594-1.922 9.594 8.016-1.594 1.922zM16.375 0l7.453 10.016-2 1.5-7.453-10.016zM5.156 22.984v-2.484h12.5v2.484h-12.5z"></path>
</symbol>
<symbol id="icon-instagram" viewBox="0 0 24 28">
<title>instagram</title>
<path class="path1" d="M21.281 22.281v-10.125h-2.109q0.313 0.984 0.313 2.047 0 1.969-1 3.633t-2.719 2.633-3.75 0.969q-3.078 0-5.266-2.117t-2.188-5.117q0-1.062 0.313-2.047h-2.203v10.125q0 0.406 0.273 0.68t0.68 0.273h16.703q0.391 0 0.672-0.273t0.281-0.68zM16.844 13.953q0-1.937-1.414-3.305t-3.414-1.367q-1.984 0-3.398 1.367t-1.414 3.305 1.414 3.305 3.398 1.367q2 0 3.414-1.367t1.414-3.305zM21.281 8.328v-2.578q0-0.438-0.313-0.758t-0.766-0.32h-2.719q-0.453 0-0.766 0.32t-0.313 0.758v2.578q0 0.453 0.313 0.766t0.766 0.313h2.719q0.453 0 0.766-0.313t0.313-0.766zM24 5.078v17.844q0 1.266-0.906 2.172t-2.172 0.906h-17.844q-1.266 0-2.172-0.906t-0.906-2.172v-17.844q0-1.266 0.906-2.172t2.172-0.906h17.844q1.266 0 2.172 0.906t0.906 2.172z"></path>
</symbol>
<symbol id="icon-bitbucket" viewBox="0 0 22 28">
<title>bitbucket</title>
<path class="path1" d="M12.734 13.422q0.125 0.984-0.789 1.578t-1.742 0.094q-0.609-0.266-0.836-0.906t-0.008-1.281 0.812-0.906q0.562-0.281 1.133-0.187t1 0.555 0.43 1.055zM14.469 13.094q-0.219-1.672-1.766-2.562t-3.078-0.203q-0.984 0.438-1.57 1.383t-0.539 2.023q0.063 1.422 1.211 2.422t2.586 0.875q1.422-0.125 2.375-1.313t0.781-2.625zM18.203 4.625q-0.313-0.422-0.875-0.695t-0.906-0.344-1.109-0.195q-4.547-0.734-8.844 0.031-0.672 0.109-1.031 0.187t-0.859 0.344-0.781 0.672q0.469 0.438 1.188 0.711t1.148 0.344 1.367 0.18q3.563 0.453 7 0.016 0.984-0.125 1.398-0.187t1.133-0.336 1.172-0.727zM19.094 20.797q-0.125 0.406-0.242 1.195t-0.219 1.313-0.445 1.094-0.906 0.883q-1.344 0.75-2.961 1.117t-3.156 0.344-3.148-0.289q-0.719-0.125-1.273-0.281t-1.195-0.422-1.141-0.68-0.812-0.961q-0.391-1.5-0.891-4.562l0.094-0.25 0.281-0.141q3.484 2.312 7.914 2.312t7.93-2.312q0.328 0.094 0.375 0.359t-0.078 0.703-0.125 0.578zM21.922 5.781q-0.406 2.609-1.734 10.234-0.078 0.469-0.422 0.875t-0.68 0.625-0.852 0.484q-3.938 1.969-9.531 1.375-3.875-0.422-6.156-2.172-0.234-0.187-0.398-0.414t-0.266-0.547-0.141-0.531-0.094-0.617-0.086-0.547q-0.141-0.781-0.414-2.344t-0.438-2.523-0.367-2.305-0.344-2.469q0.047-0.406 0.273-0.758t0.492-0.586 0.703-0.469 0.719-0.352 0.75-0.289q1.953-0.719 4.891-1 5.922-0.578 10.563 0.781 2.422 0.719 3.359 1.906 0.25 0.313 0.258 0.797t-0.086 0.844z"></path>
</symbol>
<symbol id="icon-apple" viewBox="0 0 22 28">
<title>apple</title>
<path class="path1" d="M21.766 18.984q-0.609 1.953-1.922 3.906-2.016 3.063-4.016 3.063-0.766 0-2.188-0.5-1.344-0.5-2.359-0.5-0.953 0-2.219 0.516-1.266 0.531-2.063 0.531-2.375 0-4.703-4.047-2.297-4.078-2.297-7.859 0-3.563 1.766-5.844 1.75-2.25 4.438-2.25 1.125 0 2.766 0.469 1.625 0.469 2.156 0.469 0.703 0 2.234-0.531 1.594-0.531 2.703-0.531 1.859 0 3.328 1.016 0.812 0.562 1.625 1.563-1.234 1.047-1.781 1.844-1.016 1.469-1.016 3.234 0 1.937 1.078 3.484t2.469 1.969zM15.891 0.656q0 0.953-0.453 2.125-0.469 1.172-1.453 2.156-0.844 0.844-1.687 1.125-0.578 0.172-1.625 0.266 0.047-2.328 1.219-4.016 1.156-1.672 3.906-2.312 0.016 0.047 0.039 0.172t0.039 0.172q0 0.063 0.008 0.156t0.008 0.156z"></path>
</symbol>
<symbol id="icon-windows" viewBox="0 0 26 28">
<title>windows</title>
<path class="path1" d="M10.656 15.719v10.172l-10.656-1.469v-8.703h10.656zM10.656 4.109v10.297h-10.656v-8.828zM26 15.719v12.281l-14.172-1.953v-10.328h14.172zM26 2v12.406h-14.172v-10.453z"></path>
</symbol>
<symbol id="icon-android" viewBox="0 0 22 28">
<title>android</title>
<path class="path1" d="M7.703 7.547q0.25 0 0.43-0.18t0.18-0.43-0.18-0.43-0.43-0.18-0.422 0.18-0.172 0.43 0.172 0.43 0.422 0.18zM14.297 7.547q0.25 0 0.422-0.18t0.172-0.43-0.172-0.43-0.422-0.18-0.43 0.18-0.18 0.43 0.18 0.43 0.43 0.18zM1.609 10.422q0.656 0 1.125 0.469t0.469 1.125v6.719q0 0.672-0.461 1.141t-1.133 0.469-1.141-0.469-0.469-1.141v-6.719q0-0.656 0.469-1.125t1.141-0.469zM18.172 10.719v10.406q0 0.719-0.5 1.219t-1.203 0.5h-1.172v3.547q0 0.672-0.469 1.141t-1.141 0.469-1.141-0.469-0.469-1.141v-3.547h-2.156v3.547q0 0.672-0.469 1.141t-1.141 0.469q-0.656 0-1.125-0.469t-0.469-1.141l-0.016-3.547h-1.156q-0.719 0-1.219-0.5t-0.5-1.219v-10.406h14.344zM14.547 4.391q1.672 0.859 2.672 2.398t1 3.367h-14.453q0-1.828 1-3.367t2.688-2.398l-1.109-2.047q-0.109-0.203 0.078-0.313 0.203-0.094 0.313 0.094l1.125 2.063q1.484-0.656 3.141-0.656t3.141 0.656l1.125-2.063q0.109-0.187 0.313-0.094 0.187 0.109 0.078 0.313zM22 12.016v6.719q0 0.672-0.469 1.141t-1.141 0.469q-0.656 0-1.125-0.469t-0.469-1.141v-6.719q0-0.672 0.469-1.133t1.125-0.461q0.672 0 1.141 0.461t0.469 1.133z"></path>
</symbol>
<symbol id="icon-linux" viewBox="0 0 24 28">
<title>linux</title>
<path class="path1" d="M10.359 6.422q-0.172 0.016-0.242 0.164t-0.133 0.148q-0.078 0.016-0.078-0.078 0-0.187 0.297-0.234h0.156zM11.719 6.641q-0.063 0.016-0.18-0.102t-0.273-0.070q0.375-0.172 0.5 0.031 0.047 0.094-0.047 0.141zM6.234 13.312q-0.063-0.016-0.094 0.047t-0.070 0.195-0.086 0.211-0.156 0.203q-0.109 0.156-0.016 0.187 0.063 0.016 0.195-0.109t0.195-0.281q0.016-0.047 0.031-0.109t0.031-0.094 0.023-0.070 0.008-0.063v-0.047t-0.016-0.039-0.047-0.031zM19.594 18.922q0-0.281-0.859-0.656 0.063-0.234 0.117-0.43t0.078-0.406 0.047-0.336 0.008-0.352-0.016-0.305-0.055-0.344-0.063-0.32-0.078-0.391-0.086-0.414q-0.156-0.75-0.734-1.609t-1.125-1.172q0.375 0.313 0.891 1.297 1.359 2.531 0.844 4.344-0.172 0.625-0.781 0.656-0.484 0.063-0.602-0.289t-0.125-1.305-0.18-1.672q-0.141-0.609-0.305-1.078t-0.305-0.711-0.242-0.383-0.203-0.234-0.117-0.109q-0.219-0.969-0.484-1.609t-0.461-0.875-0.367-0.516-0.234-0.625q-0.063-0.328 0.094-0.836t0.070-0.773-0.695-0.391q-0.234-0.047-0.695-0.281t-0.555-0.25q-0.125-0.016-0.172-0.406t0.125-0.797 0.562-0.422q0.578-0.047 0.797 0.469t0.063 0.906q-0.172 0.297-0.031 0.414t0.469 0.008q0.203-0.063 0.203-0.562v-0.578q-0.078-0.469-0.211-0.781t-0.328-0.477-0.367-0.234-0.422-0.117q-1.672 0.125-1.391 2.094 0 0.234-0.016 0.234-0.141-0.141-0.461-0.164t-0.516 0.008-0.242-0.078q0.016-0.891-0.25-1.406t-0.703-0.531q-0.422-0.016-0.648 0.43t-0.258 0.93q-0.016 0.234 0.055 0.578t0.203 0.586 0.242 0.211q0.156-0.047 0.25-0.219 0.063-0.141-0.109-0.125-0.109 0-0.242-0.227t-0.148-0.523q-0.016-0.344 0.141-0.578t0.531-0.219q0.266 0 0.422 0.328t0.148 0.609-0.023 0.344q-0.344 0.234-0.484 0.453-0.125 0.187-0.43 0.367t-0.32 0.195q-0.203 0.219-0.242 0.422t0.117 0.281q0.219 0.125 0.391 0.305t0.25 0.297 0.289 0.203 0.555 0.102q0.734 0.031 1.594-0.234 0.031-0.016 0.359-0.109t0.539-0.164 0.461-0.203 0.328-0.273q0.141-0.219 0.313-0.125 0.078 0.047 0.102 0.133t-0.047 0.187-0.258 0.148q-0.313 0.094-0.883 0.336t-0.711 0.305q-0.688 0.297-1.094 0.359-0.391 0.078-1.234-0.031-0.156-0.031-0.141 0.031t0.266 0.297q0.391 0.359 1.047 0.344 0.266-0.016 0.562-0.109t0.562-0.219 0.523-0.273 0.469-0.266 0.383-0.187 0.273-0.039 0.133 0.172q0 0.031-0.016 0.070t-0.063 0.078-0.094 0.070-0.133 0.078-0.141 0.070-0.156 0.078-0.148 0.070q-0.438 0.219-1.055 0.688t-1.039 0.672-0.766 0.016q-0.328-0.172-0.984-1.141-0.344-0.484-0.391-0.344-0.016 0.047-0.016 0.156 0 0.391-0.234 0.883t-0.461 0.867-0.328 0.906 0.18 0.984q-0.359 0.094-0.977 1.406t-0.742 2.203q-0.031 0.281-0.023 1.078t-0.086 0.922q-0.125 0.375-0.453 0.047-0.5-0.484-0.562-1.469-0.031-0.438 0.063-0.875 0.063-0.297-0.016-0.281l-0.063 0.078q-0.562 1.016 0.156 2.594 0.078 0.187 0.391 0.438t0.375 0.313q0.313 0.359 1.625 1.414t1.453 1.195q0.25 0.234 0.273 0.594t-0.219 0.672-0.711 0.359q0.125 0.234 0.453 0.695t0.438 0.844 0.109 1.102q0.719-0.375 0.109-1.437-0.063-0.125-0.164-0.25t-0.148-0.187-0.031-0.094q0.047-0.078 0.203-0.148t0.313 0.039q0.719 0.812 2.594 0.562 2.078-0.234 2.766-1.359 0.359-0.594 0.531-0.469 0.187 0.094 0.156 0.812-0.016 0.391-0.359 1.437-0.141 0.359-0.094 0.586t0.375 0.242q0.047-0.297 0.227-1.203t0.211-1.406q0.031-0.328-0.102-1.148t-0.117-1.516 0.359-1.102q0.234-0.281 0.797-0.281 0.016-0.578 0.539-0.828t1.133-0.164 0.938 0.352zM9.781 6q0.047-0.266-0.039-0.469t-0.18-0.234q-0.141-0.031-0.141 0.109 0.031 0.078 0.078 0.094 0.156 0 0.109 0.234-0.047 0.313 0.125 0.313 0.047 0 0.047-0.047zM16.328 9.078q-0.031-0.125-0.102-0.18t-0.203-0.078-0.227-0.086q-0.078-0.047-0.148-0.125t-0.109-0.125-0.086-0.102-0.063-0.063-0.063 0.023q-0.219 0.25 0.109 0.68t0.609 0.492q0.141 0.016 0.227-0.125t0.055-0.313zM13.547 5.75q0-0.172-0.078-0.305t-0.172-0.195-0.141-0.047q-0.219 0.016-0.109 0.109l0.063 0.031q0.219 0.063 0.281 0.484 0 0.047 0.125-0.031zM14.391 2.109q0-0.031-0.039-0.078t-0.141-0.109-0.148-0.094q-0.234-0.234-0.375-0.234-0.141 0.016-0.18 0.117t-0.016 0.203-0.008 0.195q-0.016 0.063-0.094 0.164t-0.094 0.141 0.047 0.133q0.063 0.047 0.125 0t0.172-0.141 0.234-0.141q0.016-0.016 0.141-0.016t0.234-0.031 0.141-0.109zM23.219 23.063q0.313 0.187 0.484 0.383t0.187 0.375-0.039 0.352-0.242 0.344-0.367 0.305-0.469 0.289-0.492 0.258-0.5 0.242-0.422 0.203q-0.594 0.297-1.336 0.875t-1.18 1q-0.266 0.25-1.062 0.305t-1.391-0.227q-0.281-0.141-0.461-0.367t-0.258-0.398-0.344-0.305-0.734-0.148q-0.688-0.016-2.031-0.016-0.297 0-0.891 0.023t-0.906 0.039q-0.688 0.016-1.242 0.234t-0.836 0.469-0.68 0.445-0.836 0.18q-0.453-0.016-1.734-0.484t-2.281-0.672q-0.297-0.063-0.797-0.148t-0.781-0.141-0.617-0.148-0.523-0.227-0.266-0.305q-0.156-0.359 0.109-1.039t0.281-0.852q0.016-0.25-0.063-0.625t-0.156-0.664-0.070-0.57 0.164-0.422q0.219-0.187 0.891-0.219t0.938-0.187q0.469-0.281 0.656-0.547t0.187-0.797q0.328 1.141-0.5 1.656-0.5 0.313-1.297 0.234-0.531-0.047-0.672 0.156-0.203 0.234 0.078 0.891 0.031 0.094 0.125 0.281t0.133 0.281 0.070 0.266 0.016 0.344q0 0.234-0.266 0.766t-0.219 0.75q0.047 0.266 0.578 0.406 0.313 0.094 1.32 0.289t1.555 0.32q0.375 0.094 1.156 0.344t1.289 0.359 0.867 0.063q0.672-0.094 1.008-0.438t0.359-0.75-0.117-0.914-0.297-0.812-0.313-0.57q-1.891-2.969-2.641-3.781-1.062-1.156-1.766-0.625-0.172 0.141-0.234-0.234-0.047-0.25-0.031-0.594 0.016-0.453 0.156-0.812t0.375-0.734 0.344-0.656q0.125-0.328 0.414-1.125t0.461-1.219 0.469-0.953 0.609-0.844q1.719-2.234 1.937-3.047-0.187-1.75-0.25-4.844-0.031-1.406 0.375-2.367t1.656-1.633q0.609-0.328 1.625-0.328 0.828-0.016 1.656 0.211t1.391 0.648q0.891 0.656 1.43 1.898t0.461 2.305q-0.078 1.484 0.469 3.344 0.531 1.766 2.078 3.406 0.859 0.922 1.555 2.547t0.93 2.984q0.125 0.766 0.078 1.32t-0.187 0.867-0.313 0.344q-0.156 0.031-0.367 0.297t-0.422 0.555-0.633 0.523-0.953 0.219q-0.281-0.016-0.492-0.078t-0.352-0.211-0.211-0.242-0.18-0.32-0.141-0.305q-0.344-0.578-0.641-0.469t-0.438 0.766 0.109 1.516q0.313 1.094 0.016 3.047-0.156 1.016 0.281 1.57t1.141 0.516 1.328-0.555q0.922-0.766 1.398-1.039t1.617-0.664q0.828-0.281 1.203-0.57t0.289-0.539-0.391-0.445-0.805-0.367q-0.516-0.172-0.773-0.75t-0.234-1.133 0.242-0.742q0.016 0.484 0.125 0.883t0.227 0.633 0.32 0.445 0.328 0.297 0.336 0.203 0.258 0.148z"></path>
</symbol>
<symbol id="icon-dribbble" viewBox="0 0 24 28">
<title>dribbble</title>
<path class="path1" d="M16 23.438q-0.656-3.766-2.188-7.781h-0.031l-0.031 0.016q-0.25 0.094-0.672 0.258t-1.578 0.766-2.141 1.281-2.047 1.789-1.609 2.312l-0.234-0.172q2.875 2.344 6.531 2.344 2.063 0 4-0.812zM13.109 13.953q-0.328-0.766-0.828-1.734-4.859 1.453-10.516 1.453-0.016 0.109-0.016 0.328 0 1.937 0.688 3.695t1.937 3.148q0.781-1.391 1.93-2.602t2.227-1.945 2.039-1.266 1.555-0.75l0.578-0.203q0.063-0.016 0.203-0.055t0.203-0.070zM11.438 10.641q-1.875-3.328-3.813-5.906-2.156 1.016-3.656 2.906t-2 4.25q4.719 0 9.469-1.25zM22.125 15.625q-3.281-0.938-6.391-0.453 1.359 3.734 2 7.328 1.734-1.172 2.891-2.961t1.5-3.914zM9.547 4.047q-0.016 0-0.031 0.016 0.016-0.016 0.031-0.016zM18.766 6.312q-2.891-2.562-6.766-2.562-1.188 0-2.422 0.297 2.047 2.656 3.844 5.969 1.078-0.406 2.031-0.945t1.508-0.961 1.023-0.891 0.586-0.633zM22.25 13.891q-0.047-3.625-2.328-6.406l-0.016 0.016q-0.141 0.187-0.297 0.383t-0.68 0.695-1.109 0.945-1.563 1.016-2.055 1.008q0.391 0.828 0.688 1.484 0.031 0.094 0.102 0.273t0.117 0.258q0.562-0.078 1.164-0.109t1.148-0.031 1.078 0.023 1 0.063 0.883 0.086 0.75 0.102 0.57 0.094 0.391 0.070zM24 14q0 3.266-1.609 6.023t-4.367 4.367-6.023 1.609-6.023-1.609-4.367-4.367-1.609-6.023 1.609-6.023 4.367-4.367 6.023-1.609 6.023 1.609 4.367 4.367 1.609 6.023z"></path>
</symbol>
<symbol id="icon-skype" viewBox="0 0 24 28">
<title>skype</title>
<path class="path1" d="M18.328 16.609q0-0.781-0.305-1.43t-0.758-1.070-1.141-0.766-1.289-0.531-1.367-0.359l-1.625-0.375q-0.469-0.109-0.688-0.164t-0.547-0.18-0.469-0.25-0.258-0.328-0.117-0.469q0-1.203 2.25-1.203 0.672 0 1.203 0.187t0.844 0.445 0.594 0.523 0.625 0.453 0.75 0.187q0.734 0 1.18-0.5t0.445-1.203q0-0.859-0.875-1.555t-2.219-1.055-2.844-0.359q-1.062 0-2.063 0.242t-1.867 0.734-1.391 1.359-0.523 2.008q0 0.953 0.297 1.664t0.875 1.18 1.25 0.758 1.609 0.508l2.281 0.562q1.406 0.344 1.75 0.562 0.5 0.313 0.5 0.938 0 0.609-0.625 1.008t-1.641 0.398q-0.797 0-1.43-0.25t-1.016-0.602-0.711-0.703-0.719-0.602-0.844-0.25q-0.781 0-1.18 0.469t-0.398 1.172q0 1.437 1.906 2.461t4.547 1.023q1.141 0 2.187-0.289t1.914-0.836 1.383-1.461 0.516-2.055zM24 20q0 2.484-1.758 4.242t-4.242 1.758q-2.031 0-3.656-1.25-1.203 0.25-2.344 0.25-2.234 0-4.273-0.867t-3.516-2.344-2.344-3.516-0.867-4.273q0-1.141 0.25-2.344-1.25-1.625-1.25-3.656 0-2.484 1.758-4.242t4.242-1.758q2.031 0 3.656 1.25 1.203-0.25 2.344-0.25 2.234 0 4.273 0.867t3.516 2.344 2.344 3.516 0.867 4.273q0 1.141-0.25 2.344 1.25 1.625 1.25 3.656z"></path>
</symbol>
<symbol id="icon-bug" viewBox="0 0 26 28">
<title>bug</title>
<path class="path1" d="M25.5 15q0 0.406-0.297 0.703t-0.703 0.297h-3.5q0 2.672-1.047 4.531l3.25 3.266q0.297 0.297 0.297 0.703t-0.297 0.703q-0.281 0.297-0.703 0.297t-0.703-0.297l-3.094-3.078q-0.078 0.078-0.234 0.203t-0.656 0.445-1.016 0.57-1.281 0.453-1.516 0.203v-14h-2v14q-0.797 0-1.586-0.211t-1.359-0.516-1.031-0.609-0.68-0.508l-0.234-0.219-2.859 3.234q-0.313 0.328-0.75 0.328-0.375 0-0.672-0.25-0.297-0.281-0.32-0.695t0.242-0.727l3.156-3.547q-0.906-1.781-0.906-4.281h-3.5q-0.406 0-0.703-0.297t-0.297-0.703 0.297-0.703 0.703-0.297h3.5v-4.594l-2.703-2.703q-0.297-0.297-0.297-0.703t0.297-0.703 0.703-0.297 0.703 0.297l2.703 2.703h13.188l2.703-2.703q0.297-0.297 0.703-0.297t0.703 0.297 0.297 0.703-0.297 0.703l-2.703 2.703v4.594h3.5q0.406 0 0.703 0.297t0.297 0.703zM18 6h-10q0-2.078 1.461-3.539t3.539-1.461 3.539 1.461 1.461 3.539z"></path>
</symbol>
<symbol id="icon-stack-exchange" viewBox="0 0 20 28">
<title>stack-exchange</title>
<path class="path1" d="M19.672 19.578v1.031q0 1.328-0.898 2.258t-2.164 0.93h-0.891l-4.062 4.203v-4.203h-8.266q-1.266 0-2.164-0.93t-0.898-2.258v-1.031h19.344zM19.672 14.484v3.984h-19.344v-3.984h19.344zM19.672 9.359v3.984h-19.344v-3.984h19.344zM19.672 7.172v1.047h-19.344v-1.047q0-1.313 0.898-2.242t2.164-0.93h13.219q1.266 0 2.164 0.93t0.898 2.242z"></path>
</symbol>
<symbol id="icon-slack" viewBox="0 0 26 28">
<title>slack</title>
<path class="path1" d="M23.734 12.125q0.969 0 1.617 0.633t0.648 1.586q0 1.516-1.453 2.031l-2.688 0.922 0.875 2.609q0.109 0.328 0.109 0.734 0 0.922-0.656 1.594t-1.578 0.672q-0.734 0-1.336-0.422t-0.836-1.125l-0.859-2.578-4.844 1.656 0.859 2.562q0.125 0.375 0.125 0.734 0 0.922-0.656 1.594t-1.594 0.672q-0.734 0-1.328-0.422t-0.828-1.125l-0.859-2.547-2.391 0.828q-0.453 0.141-0.781 0.141-0.953 0-1.586-0.625t-0.633-1.578q0-0.734 0.43-1.328t1.117-0.828l2.438-0.828-1.641-4.891-2.438 0.844q-0.406 0.125-0.75 0.125-0.938 0-1.578-0.633t-0.641-1.57q0-0.734 0.43-1.328t1.117-0.828l2.453-0.828-0.828-2.484q-0.125-0.375-0.125-0.734 0-0.938 0.656-1.602t1.594-0.664q0.734 0 1.328 0.422t0.828 1.125l0.844 2.5 4.844-1.641-0.844-2.5q-0.125-0.375-0.125-0.734 0-0.922 0.664-1.594t1.586-0.672q0.734 0 1.336 0.43t0.836 1.117l0.828 2.516 2.531-0.859q0.328-0.094 0.672-0.094 0.938 0 1.602 0.617t0.664 1.539q0 0.703-0.469 1.273t-1.156 0.805l-2.453 0.844 1.641 4.937 2.562-0.875q0.375-0.125 0.719-0.125zM11.328 16.219l4.844-1.641-1.641-4.922-4.844 1.672z"></path>
</symbol>
<symbol id="icon-wordpress" viewBox="0 0 28 28">
<title>wordpress</title>
<path class="path1" d="M1.984 14q0-2.547 1.047-4.891l5.734 15.703q-3.063-1.484-4.922-4.391t-1.859-6.422zM22.109 13.391q0 0.297-0.039 0.602t-0.156 0.773-0.18 0.688-0.273 0.922-0.273 0.906l-1.188 4-4.344-12.906q0.719-0.047 1.375-0.125 0.297-0.031 0.406-0.289t-0.039-0.484-0.445-0.211l-3.203 0.156q-1.172-0.016-3.156-0.156-0.187-0.016-0.32 0.078t-0.18 0.234-0.023 0.289 0.141 0.258 0.305 0.125l1.25 0.125 1.875 5.125-2.625 7.875-4.375-13q0.719-0.047 1.375-0.125 0.297-0.031 0.406-0.289t-0.039-0.484-0.445-0.211l-3.203 0.156q-0.109 0-0.359-0.008t-0.406-0.008q1.641-2.5 4.289-3.961t5.742-1.461q2.297 0 4.383 0.828t3.727 2.328h-0.156q-0.859 0-1.437 0.633t-0.578 1.492q0 0.187 0.031 0.375t0.063 0.336 0.125 0.359 0.141 0.328 0.187 0.352 0.195 0.328 0.227 0.375 0.219 0.359q0.984 1.672 0.984 3.313zM14.203 15.047l3.703 10.109q0.016 0.094 0.078 0.172-1.969 0.688-3.984 0.688-1.75 0-3.391-0.5zM24.531 8.234q1.484 2.719 1.484 5.766 0 3.266-1.625 6.023t-4.359 4.352l3.672-10.594q0.922-2.641 0.922-4.312 0-0.656-0.094-1.234zM14 0q2.844 0 5.437 1.109t4.469 2.984 2.984 4.469 1.109 5.437-1.109 5.437-2.984 4.469-4.469 2.984-5.437 1.109-5.437-1.109-4.469-2.984-2.984-4.469-1.109-5.437 1.109-5.437 2.984-4.469 4.469-2.984 5.437-1.109zM14 27.359q2.703 0 5.18-1.062t4.266-2.852 2.852-4.266 1.062-5.18-1.062-5.18-2.852-4.266-4.266-2.852-5.18-1.062-5.18 1.062-4.266 2.852-2.852 4.266-1.062 5.18 1.062 5.18 2.852 4.266 4.266 2.852 5.18 1.062z"></path>
</symbol>
<symbol id="icon-drupal" viewBox="0 0 24 28">
<title>drupal</title>
<path class="path1" d="M18.234 24.781q-0.078-0.297-0.375-0.078-0.469 0.344-1.359 0.609t-2.047 0.266q-2.016 0-3.016-0.766-0.078-0.063-0.203-0.063-0.172 0-0.406 0.187-0.109 0.094-0.117 0.25t0.117 0.313q0.531 0.5 1.367 0.719t1.602 0.195 1.547-0.070q0.641-0.063 1.32-0.32t1.016-0.469 0.445-0.32q0.187-0.187 0.109-0.453zM17.625 22.984q-0.297-0.734-0.609-0.953-0.359-0.234-1.188-0.234-0.734 0-1.109 0.156-0.453 0.187-1.219 0.875-0.406 0.375-0.187 0.688 0.141 0.125 0.273 0.070t0.492-0.367q0.047-0.031 0.164-0.133t0.164-0.133 0.156-0.109 0.18-0.109 0.195-0.078 0.234-0.070 0.258-0.039 0.32-0.016q0.422 0 0.695 0.117t0.359 0.227 0.211 0.344q0.156 0.266 0.195 0.313t0.195-0.016q0.359-0.187 0.219-0.531zM23.172 18.594q0-0.344-0.078-0.695t-0.258-0.703-0.531-0.57-0.82-0.219q-0.516 0-1.516 0.648t-2.016 1.305-1.578 0.656q-0.422 0.016-0.992-0.297t-1.188-0.766-1.305-0.906-1.563-0.766-1.734-0.297q-1.797 0.016-3.078 1.227t-1.313 2.789q-0.031 1.75 1.156 2.562 0.453 0.313 0.977 0.445t1.617 0.133q0.891 0 2.063-0.508t2.094-1.109 1.875-1.102 1.453-0.484q0.406 0.016 1.016 0.492t1.117 1.047 1.062 1.055 0.867 0.5q0.547 0.047 0.914-0.219t0.867-0.984q0.438-0.641 0.664-1.578t0.227-1.656zM24 16.094q0 2.562-0.969 4.758t-2.594 3.687-3.789 2.336-4.539 0.844-4.578-0.898-3.867-2.453-2.664-3.773-1-4.719q0-1.391 0.305-2.695t0.766-2.273 1.102-1.852 1.227-1.469 1.227-1.086 1.008-0.727 0.664-0.383q0.219-0.125 0.797-0.414t0.852-0.445 0.75-0.469 0.945-0.688q0.562-0.438 0.906-1.133t0.469-1.961q2.016 2.422 2.906 3.016 0.688 0.453 2.031 1.062t2.016 1.031q0.328 0.203 0.609 0.391t0.945 0.727 1.188 1.102 1.172 1.484 1.078 1.906 0.734 2.32 0.305 2.773z"></path>
</symbol>
<symbol id="icon-joomla" viewBox="0 0 24 28">
<title>joomla</title>
<path class="path1" d="M16.719 16.766l-2.5 2.5-2.359 2.375-0.469 0.469q-1.016 1-2.367 1.359t-2.68 0.031q-0.25 1.094-1.125 1.797t-2.016 0.703q-1.328 0-2.266-0.945t-0.938-2.273q0-1.125 0.695-2t1.773-1.125q-0.344-1.344 0.016-2.703t1.375-2.375l0.187-0.187 2.359 2.375-0.172 0.172q-0.578 0.578-0.578 1.391t0.578 1.406q0.578 0.578 1.391 0.578t1.391-0.578l0.469-0.469 2.359-2.375 2.516-2.5zM11.391 6.109l0.187 0.187-2.375 2.375-0.187-0.187q-0.578-0.578-1.391-0.578t-1.391 0.578-0.578 1.398 0.578 1.398l5.328 5.328-2.359 2.375-2.516-2.5-2.359-2.375-0.469-0.469q-1.062-1.047-1.406-2.492t0.078-2.805q-1.094-0.234-1.797-1.109t-0.703-2.016q0-1.328 0.938-2.273t2.266-0.945q1.188 0 2.086 0.766t1.086 1.922q1.313-0.313 2.648 0.055t2.336 1.367zM24 22.781q0 1.328-0.938 2.273t-2.266 0.945q-1.156 0-2.047-0.734t-1.109-1.844q-1.344 0.438-2.805 0.094t-2.523-1.406l-0.172-0.187 2.359-2.375 0.187 0.187q0.578 0.578 1.391 0.578t1.391-0.578 0.578-1.391-0.578-1.391l-5.344-5.344 2.375-2.375 4.875 4.875 0.453 0.469q1 1 1.367 2.352t0.039 2.68q1.188 0.172 1.977 1.070t0.789 2.102zM23.969 5.219q0 1.203-0.797 2.109t-1.984 1.078q0.406 1.328 0.047 2.758t-1.406 2.477l-0.187 0.187-2.359-2.375 0.187-0.187q0.578-0.578 0.578-1.391t-0.578-1.391-1.391-0.578-1.391 0.578l-5.344 5.344-2.375-2.375 2.516-2.5 2.375-2.375 0.453-0.469q1.047-1.047 2.484-1.398t2.781 0.055q0.172-1.172 1.070-1.969t2.117-0.797q1.328 0 2.266 0.945t0.938 2.273z"></path>
</symbol>
<symbol id="icon-paw" viewBox="0 0 26 28">
<title>paw</title>
<path class="path1" d="M12.187 7.375q0 0.938-0.297 1.773t-0.984 1.445-1.641 0.609q-1.188 0-2.156-0.898t-1.437-2.117-0.469-2.359q0-0.938 0.297-1.773t0.984-1.445 1.641-0.609q1.203 0 2.164 0.898t1.43 2.109 0.469 2.367zM6.844 14.922q0 1.25-0.656 2.172t-1.859 0.922q-1.188 0-2.211-0.867t-1.57-2.086-0.547-2.375q0-1.25 0.656-2.18t1.859-0.93q1.188 0 2.211 0.867t1.57 2.094 0.547 2.383zM13 14.5q1.844 0 3.984 1.523t3.578 3.703 1.437 3.977q0 0.719-0.266 1.195t-0.758 0.703-1.008 0.313-1.188 0.086q-1.062 0-2.93-0.703t-2.852-0.703q-1.031 0-3.008 0.695t-3.133 0.695q-2.859 0-2.859-2.281 0-1.344 0.875-2.992t2.18-3.008 2.93-2.281 3.016-0.922zM16.734 11.203q-0.953 0-1.641-0.609t-0.984-1.445-0.297-1.773q0-1.156 0.469-2.367t1.43-2.109 2.164-0.898q0.953 0 1.641 0.609t0.984 1.445 0.297 1.773q0 1.141-0.469 2.359t-1.437 2.117-2.156 0.898zM23.484 9.578q1.203 0 1.859 0.93t0.656 2.18q0 1.156-0.547 2.375t-1.57 2.086-2.211 0.867q-1.203 0-1.859-0.922t-0.656-2.172q0-1.156 0.547-2.383t1.57-2.094 2.211-0.867z"></path>
</symbol>
<symbol id="icon-behance" viewBox="0 0 32 28">
<title>behance</title>
<path class="path1" d="M28.875 5.297h-7.984v1.937h7.984v-1.937zM24.938 11.953q-1.406 0-2.281 0.82t-0.969 2.227h6.375q-0.281-3.047-3.125-3.047zM25.188 21.094q0.984 0 1.906-0.5t1.188-1.359h3.453q-1.563 4.797-6.672 4.797-3.344 0-5.32-2.063t-1.977-5.422q0-3.25 2.039-5.398t5.258-2.148q2.156 0 3.758 1.062t2.391 2.797 0.789 3.875q0 0.266-0.031 0.734h-10.281q0 1.734 0.898 2.68t2.602 0.945zM4.328 20.312h4.625q3.203 0 3.203-2.609 0-2.812-3.109-2.812h-4.719v5.422zM4.328 11.922h4.391q1.219 0 1.93-0.57t0.711-1.773q0-2.25-2.969-2.25h-4.062v4.594zM0 3.969h9.281q1.359 0 2.422 0.219t1.977 0.742 1.406 1.508 0.492 2.406q0 2.828-2.688 4.109 1.781 0.5 2.688 1.797t0.906 3.187q0 1.172-0.383 2.133t-1.031 1.617-1.539 1.109-1.891 0.656-2.094 0.203h-9.547v-19.688z"></path>
</symbol>
<symbol id="icon-steam" viewBox="0 0 28 28">
<title>steam</title>
<path class="path1" d="M24.719 9.094q0 1.578-1.117 2.695t-2.695 1.117-2.695-1.117-1.117-2.695 1.117-2.695 2.695-1.117 2.695 1.117 1.117 2.695zM12.688 20.687q0-1.625-1.141-2.766t-2.766-1.141q-0.422 0-0.844 0.094l1.625 0.656q1.203 0.484 1.711 1.664t0.023 2.367q-0.484 1.203-1.672 1.703t-2.375 0.016q-0.328-0.125-0.969-0.383t-0.953-0.383q0.5 0.938 1.422 1.508t2.031 0.57q1.625 0 2.766-1.141t1.141-2.766zM25.656 9.109q0-1.969-1.398-3.367t-3.367-1.398q-1.984 0-3.383 1.398t-1.398 3.367q0 1.984 1.398 3.375t3.383 1.391q1.969 0 3.367-1.391t1.398-3.375zM28 9.109q0 2.953-2.086 5.031t-5.023 2.078l-6.828 4.984q-0.187 2.016-1.703 3.406t-3.578 1.391q-1.891 0-3.344-1.188t-1.844-3l-3.594-1.437v-6.703l6.078 2.453q1.234-0.75 2.703-0.75 0.203 0 0.547 0.031l4.438-6.359q0.031-2.922 2.117-4.984t5.008-2.063q2.938 0 5.023 2.086t2.086 5.023z"></path>
</symbol>
<symbol id="icon-steam-square" viewBox="0 0 24 28">
<title>steam-square</title>
<path class="path1" d="M19.406 10.109q0-1.25-0.891-2.133t-2.141-0.883-2.133 0.891-0.883 2.125q0 1.25 0.883 2.133t2.133 0.883 2.141-0.883 0.891-2.133zM9.875 19.297q0 1.297-0.906 2.195t-2.188 0.898q-0.875 0-1.609-0.453t-1.125-1.203q0.812 0.313 1.531 0.625 0.938 0.375 1.875-0.023t1.328-1.352q0.375-0.938-0.023-1.875t-1.352-1.313l-1.281-0.516q0.344-0.078 0.656-0.078 1.281 0 2.188 0.898t0.906 2.195zM24 6.5v15q0 1.859-1.32 3.18t-3.18 1.32h-15q-1.859 0-3.18-1.32t-1.32-3.18v-2.391l2.688 1.078q0.313 1.437 1.461 2.375t2.633 0.938q1.625 0 2.828-1.094t1.359-2.703l5.391-3.938q2.344 0 3.992-1.648t1.648-3.977q0-2.344-1.648-3.992t-3.992-1.648q-2.312 0-3.953 1.633t-1.672 3.945l-3.516 5.031q-0.141-0.016-0.438-0.016-1.172 0-2.141 0.578l-4.641-1.859v-7.313q0-1.859 1.32-3.18t3.18-1.32h15q1.859 0 3.18 1.32t1.32 3.18zM20.141 10.141q0 1.563-1.109 2.664t-2.672 1.102-2.664-1.102-1.102-2.664 1.102-2.672 2.664-1.109q1.578 0 2.68 1.102t1.102 2.68z"></path>
</symbol>
<symbol id="icon-spotify" viewBox="0 0 24 28">
<title>spotify</title>
<path class="path1" d="M17.609 18.906q0-0.5-0.469-0.797-3.016-1.797-6.984-1.797-2.078 0-4.484 0.531-0.656 0.141-0.656 0.812 0 0.313 0.211 0.539t0.555 0.227q0.078 0 0.578-0.125 2.063-0.422 3.797-0.422 3.531 0 6.203 1.609 0.297 0.172 0.516 0.172 0.297 0 0.516-0.211t0.219-0.539zM19.109 15.547q0-0.625-0.547-0.953-3.703-2.203-8.563-2.203-2.391 0-4.734 0.656-0.75 0.203-0.75 1 0 0.391 0.273 0.664t0.664 0.273q0.109 0 0.578-0.125 1.906-0.516 3.922-0.516 4.359 0 7.625 1.937 0.375 0.203 0.594 0.203 0.391 0 0.664-0.273t0.273-0.664zM20.797 11.672q0-0.734-0.625-1.094-1.969-1.141-4.578-1.727t-5.359-0.586q-3.187 0-5.688 0.734-0.359 0.109-0.602 0.398t-0.242 0.758q0 0.484 0.32 0.812t0.805 0.328q0.172 0 0.625-0.125 2.078-0.578 4.797-0.578 2.484 0 4.836 0.531t3.961 1.484q0.328 0.187 0.625 0.187 0.453 0 0.789-0.32t0.336-0.805zM24 14q0 3.266-1.609 6.023t-4.367 4.367-6.023 1.609-6.023-1.609-4.367-4.367-1.609-6.023 1.609-6.023 4.367-4.367 6.023-1.609 6.023 1.609 4.367 4.367 1.609 6.023z"></path>
</symbol>
<symbol id="icon-database" viewBox="0 0 24 28">
<title>database</title>
<path class="path1" d="M12 12q3.703 0 6.922-0.672t5.078-1.984v2.656q0 1.078-1.609 2t-4.375 1.461-6.016 0.539-6.016-0.539-4.375-1.461-1.609-2v-2.656q1.859 1.313 5.078 1.984t6.922 0.672zM12 24q3.703 0 6.922-0.672t5.078-1.984v2.656q0 1.078-1.609 2t-4.375 1.461-6.016 0.539-6.016-0.539-4.375-1.461-1.609-2v-2.656q1.859 1.313 5.078 1.984t6.922 0.672zM12 18q3.703 0 6.922-0.672t5.078-1.984v2.656q0 1.078-1.609 2t-4.375 1.461-6.016 0.539-6.016-0.539-4.375-1.461-1.609-2v-2.656q1.859 1.312 5.078 1.984t6.922 0.672zM12 0q3.25 0 6.016 0.539t4.375 1.461 1.609 2v2q0 1.078-1.609 2t-4.375 1.461-6.016 0.539-6.016-0.539-4.375-1.461-1.609-2v-2q0-1.078 1.609-2t4.375-1.461 6.016-0.539z"></path>
</symbol>
<symbol id="icon-codepen" viewBox="0 0 28 28">
<title>codepen</title>
<path class="path1" d="M3.375 18.266l9.422 6.281v-5.609l-5.219-3.484zM2.406 16.016l3.016-2.016-3.016-2.016v4.031zM15.203 24.547l9.422-6.281-4.203-2.812-5.219 3.484v5.609zM14 16.844l4.25-2.844-4.25-2.844-4.25 2.844zM7.578 12.547l5.219-3.484v-5.609l-9.422 6.281zM22.578 14l3.016 2.016v-4.031zM20.422 12.547l4.203-2.812-9.422-6.281v5.609zM28 9.734v8.531q0 0.641-0.531 1l-12.797 8.531q-0.328 0.203-0.672 0.203t-0.672-0.203l-12.797-8.531q-0.531-0.359-0.531-1v-8.531q0-0.641 0.531-1l12.797-8.531q0.328-0.203 0.672-0.203t0.672 0.203l12.797 8.531q0.531 0.359 0.531 1z"></path>
</symbol>
<symbol id="icon-jsfiddle" viewBox="0 0 32 28">
<title>jsfiddle</title>
<path class="path1" d="M28.125 12.063q1.734 0.719 2.805 2.273t1.070 3.461q0 2.562-1.844 4.383t-4.453 1.82q-0.063 0-0.18-0.008t-0.164-0.008h-19.016q-2.656-0.156-4.5-1.961t-1.844-4.383q0-1.719 0.859-3.172t2.297-2.297q-0.187-0.609-0.187-1.281 0-1.797 1.281-3.063t3.109-1.266q1.484 0 2.688 0.906 1.172-2.406 3.477-3.875t5.102-1.469q2.594 0 4.781 1.258t3.461 3.414 1.273 4.703q0 0.094-0.008 0.281t-0.008 0.281zM7.313 16.219q0 1.906 1.313 3.016t3.25 1.109q2.141 0 3.75-1.547-0.25-0.313-0.742-0.883t-0.68-0.789q-1.047 1.016-2.25 1.016-0.859 0-1.461-0.523t-0.602-1.367q0-0.828 0.602-1.359t1.43-0.531q0.688 0 1.32 0.328t1.141 0.859 1.016 1.172 1.078 1.281 1.203 1.172 1.516 0.859 1.898 0.328q1.891 0 3.195-1.117t1.305-2.977q0-1.891-1.313-3t-3.234-1.109q-2.234 0-3.766 1.516 0.219 0.25 0.461 0.531t0.539 0.625 0.453 0.531q1.031-1 2.219-1 0.812 0 1.437 0.516t0.625 1.313q0 0.891-0.578 1.43t-1.469 0.539q-0.672 0-1.289-0.328t-1.125-0.859-1.023-1.172-1.086-1.281-1.211-1.172-1.508-0.859-1.852-0.328q-1.906 0-3.234 1.102t-1.328 2.961z"></path>
</symbol>
<symbol id="icon-ra" viewBox="0 0 28 28">
<title>ra</title>
<path class="path1" d="M0.297 13.656q0.125-3.391 1.813-6.344t4.766-4.969h0.078q0 0.016-0.016 0.047-0.125 0.125-0.438 0.523t-0.812 1.195-0.938 1.727-0.695 2.117-0.219 2.352 0.609 2.461 1.695 2.406q0.781 0.781 1.594 1.086t1.414 0.18 1.086-0.367 0.734-0.508l0.25-0.25q0.609-0.797 0.828-1.82t0.102-1.914-0.328-1.672-0.414-1.25l-0.219-0.453q-0.156-0.391-0.477-0.773t-0.672-0.641-0.68-0.461-0.547-0.297l-0.203-0.094 1.625-1.797q0.609 0.266 1.219 0.812t0.922 0.953l0.297 0.422q0.016-0.75-0.289-1.617t-0.633-1.367l-0.313-0.484 2.516-2.859 2.5 2.828q-0.516 0.719-0.82 1.602t-0.352 1.414l-0.063 0.516q0.344-0.578 0.961-1.133t1.055-0.82l0.438-0.266 1.609 1.797q-0.688 0.219-1.328 0.781t-0.938 1.016l-0.297 0.453q-0.484 0.875-0.75 2.086t-0.109 2.656 0.891 2.445q0.516 0.703 1.211 0.945t1.328 0.086 1.188-0.414 0.898-0.523l0.328-0.25q0.938-0.828 1.508-1.797t0.758-1.898 0.156-1.898-0.281-1.844-0.578-1.68-0.711-1.453-0.703-1.125-0.539-0.742l-0.203-0.266q-0.219-0.203-0.109-0.203l0.156 0.047q0.625 0.453 0.977 0.719t0.969 0.781 1 0.906 0.914 1.016 0.867 1.203 0.711 1.375 0.594 1.609 0.367 1.828 0.164 2.125q0.047 4.047-1.687 7.266t-4.875 5.016-7.125 1.797q-2.891 0-5.484-1.156t-4.43-3.094-2.875-4.578-0.945-5.516z"></path>
</symbol>
<symbol id="icon-empire" viewBox="0 0 28 28">
<title>empire</title>
<path class="path1" d="M13.656 25.594v1.031q-3.25-0.094-6.016-1.711t-4.422-4.305l0.906-0.531q0.453 0.766 1.141 1.547l1.016-0.891q2.312 2.625 5.75 3.313l-0.266 1.344q1.016 0.187 1.891 0.203zM4.312 17.313l-1.297 0.438q0.344 0.938 0.766 1.75l-0.891 0.516q-1.531-2.812-1.531-6.016t1.531-6.016l0.891 0.516q-0.469 0.875-0.766 1.75l1.281 0.438q-0.547 1.563-0.547 3.313 0 1.703 0.562 3.313zM23.875 20.078l0.906 0.531q-1.656 2.688-4.422 4.305t-6.016 1.711v-1.031q0.875-0.016 1.891-0.203l-0.266-1.344q3.437-0.688 5.75-3.313l1.016 0.891q0.688-0.781 1.141-1.547zM21.516 11.422l-3.641 1.25q0.219 0.656 0.219 1.328t-0.219 1.328l3.625 1.25q-0.484 1.437-1.531 2.641l-2.891-2.531q-0.891 1.047-2.297 1.328l0.75 3.766q-0.812 0.156-1.531 0.156t-1.531-0.156l0.75-3.766q-1.406-0.281-2.297-1.328l-2.891 2.531q-1.047-1.203-1.531-2.641l3.625-1.25q-0.219-0.656-0.219-1.328t0.219-1.328l-3.641-1.25q0.516-1.453 1.547-2.641l2.891 2.531q0.922-1.062 2.297-1.344l-0.75-3.75q0.688-0.156 1.531-0.156t1.531 0.156l-0.75 3.75q1.375 0.281 2.297 1.344l2.891-2.531q1.031 1.188 1.547 2.641zM13.656 1.375v1.031q-1.016 0.031-1.891 0.203l0.266 1.344q-3.437 0.656-5.75 3.297l-1.016-0.875q-0.594 0.656-1.141 1.531l-0.891-0.516q1.656-2.688 4.406-4.305t6.016-1.711zM26.641 14q0 3.203-1.531 6.016l-0.891-0.516q0.422-0.812 0.766-1.75l-1.297-0.438q0.562-1.609 0.562-3.313 0-1.75-0.547-3.313l1.281-0.438q-0.297-0.875-0.766-1.75l0.891-0.516q1.531 2.812 1.531 6.016zM24.766 7.391l-0.891 0.516q-0.547-0.875-1.141-1.531l-1.016 0.875q-2.312-2.641-5.75-3.297l0.266-1.344q-0.875-0.172-1.891-0.203v-1.031q3.266 0.094 6.016 1.711t4.406 4.305zM27.312 14q0-2.703-1.055-5.172t-2.836-4.25-4.25-2.836-5.172-1.055-5.172 1.055-4.25 2.836-2.836 4.25-1.055 5.172 1.055 5.172 2.836 4.25 4.25 2.836 5.172 1.055 5.172-1.055 4.25-2.836 2.836-4.25 1.055-5.172zM28 14q0 2.844-1.109 5.437t-2.984 4.469-4.469 2.984-5.437 1.109-5.437-1.109-4.469-2.984-2.984-4.469-1.109-5.437 1.109-5.437 2.984-4.469 4.469-2.984 5.437-1.109 5.437 1.109 4.469 2.984 2.984 4.469 1.109 5.437z"></path>
</symbol>
<symbol id="icon-git-square" viewBox="0 0 24 28">
<title>git-square</title>
<path class="path1" d="M9.094 20.438q0 1.031-1.453 1.031-1.672 0-1.672-0.984 0-1 1.531-1 1.594 0 1.594 0.953zM8.531 13.156q0 1.328-1.156 1.328-1.203 0-1.203-1.313 0-1.406 1.203-1.406 0.562 0 0.859 0.398t0.297 0.992zM11.125 11.984v-1.953q-1.219 0.453-2.109 0.453-0.781-0.453-1.719-0.453-1.344 0-2.266 0.891t-0.922 2.234q0 0.781 0.461 1.594t1.148 1.047v0.047q-0.594 0.266-0.594 1.328 0 0.828 0.641 1.203v0.047q-1.766 0.578-1.766 2.172 0 0.703 0.313 1.227t0.844 0.797 1.125 0.398 1.266 0.125q3.5 0 3.5-2.938 0-1.047-0.75-1.547t-1.969-0.719q-0.422-0.078-0.805-0.32t-0.383-0.617q0-0.688 0.766-0.812 1.203-0.234 1.906-1.094t0.703-2.094q0-0.375-0.156-0.812 0.578-0.141 0.766-0.203zM12.047 18.531h2.141q-0.031-0.422-0.031-1.281v-6.047q0-0.719 0.031-1.078h-2.141q0.047 0.359 0.047 1.109v6.125q0 0.781-0.047 1.172zM20 18.281v-1.891q-0.469 0.328-1.062 0.328-0.828 0-0.828-1.281v-3.516h0.812q0.141 0 0.414 0.016t0.414 0.016v-1.828h-1.641q0-1.281 0.047-1.594h-2.188q0.063 0.375 0.063 0.859v0.734h-0.938v1.828q0.562-0.047 0.578-0.047 0.047 0 0.172 0.008t0.187 0.008v0.031h-0.031v3.391q0 0.578 0.039 1t0.18 0.883 0.383 0.758 0.68 0.484 1.031 0.187q1 0 1.687-0.375zM14.438 7.25q0-0.562-0.375-0.992t-0.938-0.43-0.945 0.422-0.383 1q0 0.562 0.391 0.977t0.938 0.414 0.93-0.422 0.383-0.969zM24 6.5v15q0 1.859-1.32 3.18t-3.18 1.32h-15q-1.859 0-3.18-1.32t-1.32-3.18v-15q0-1.859 1.32-3.18t3.18-1.32h15q1.859 0 3.18 1.32t1.32 3.18z"></path>
</symbol>
<symbol id="icon-git" viewBox="0 0 28 28">
<title>git</title>
<path class="path1" d="M9.297 23.656q0-1.563-2.578-1.563-2.469 0-2.469 1.625 0 1.578 2.688 1.578 2.359 0 2.359-1.641zM8.375 11.859q0-0.953-0.469-1.594t-1.391-0.641q-1.937 0-1.937 2.266 0 2.109 1.937 2.109 1.859 0 1.859-2.141zM12.578 6.797v3.156q-0.562 0.187-1.234 0.344 0.25 0.672 0.25 1.313 0 1.984-1.141 3.383t-3.078 1.758q-0.625 0.125-0.93 0.422t-0.305 0.906q0 0.484 0.352 0.805t0.906 0.5 1.227 0.344 1.344 0.398 1.227 0.586 0.906 1 0.352 1.539q0 4.75-5.672 4.75-1.078 0-2.031-0.195t-1.813-0.641-1.367-1.281-0.508-1.992q0-2.578 2.844-3.516v-0.063q-1.047-0.641-1.047-1.969 0-1.703 0.984-2.141v-0.063q-1.125-0.375-1.867-1.695t-0.742-2.586q0-2.172 1.484-3.617t3.672-1.445q1.5 0 2.781 0.734 1.531 0 3.406-0.734zM17.547 20.563h-3.469q0.063-0.703 0.063-2.094v-9.516q0-1.469-0.063-2h3.469q-0.063 0.516-0.063 1.937v9.578q0 1.391 0.063 2.094zM26.938 17.094v3.063q-1.109 0.609-2.719 0.609-0.969 0-1.672-0.313t-1.094-0.781-0.617-1.219-0.289-1.437-0.063-1.609v-5.484h0.031v-0.063q-0.109 0-0.297-0.016t-0.281-0.016q-0.328 0-0.922 0.094v-2.969h1.5v-1.188q0-0.844-0.094-1.391h3.547q-0.094 0.641-0.094 2.578h2.672v2.969q-0.234 0-0.68-0.031t-0.664-0.031h-1.328v5.703q0 2.047 1.359 2.047 0.953 0 1.703-0.516zM17.938 2.297q0 0.906-0.609 1.586t-1.5 0.68q-0.906 0-1.531-0.68t-0.625-1.586q0-0.922 0.617-1.609t1.539-0.688q0.906 0 1.508 0.695t0.602 1.602z"></path>
</symbol>
<symbol id="icon-paper-plane" viewBox="0 0 28 28">
<title>paper-plane</title>
<path class="path1" d="M27.563 0.172q0.516 0.375 0.422 1l-4 24q-0.078 0.453-0.5 0.703-0.219 0.125-0.484 0.125-0.172 0-0.375-0.078l-7.078-2.891-3.781 4.609q-0.281 0.359-0.766 0.359-0.203 0-0.344-0.063-0.297-0.109-0.477-0.367t-0.18-0.57v-5.453l13.5-16.547-16.703 14.453-6.172-2.531q-0.578-0.219-0.625-0.859-0.031-0.625 0.5-0.922l26-15q0.234-0.141 0.5-0.141 0.313 0 0.562 0.172z"></path>
</symbol>
<symbol id="icon-paper-plane-o" viewBox="0 0 28 28">
<title>paper-plane-o</title>
<path class="path1" d="M27.563 0.172q0.516 0.375 0.422 1l-4 24q-0.078 0.453-0.5 0.703-0.219 0.125-0.484 0.125-0.172 0-0.375-0.078l-8.234-3.359-4.656 5.109q-0.281 0.328-0.734 0.328-0.219 0-0.359-0.063-0.297-0.109-0.469-0.367t-0.172-0.57v-7.063l-7.375-3.016q-0.578-0.219-0.625-0.859-0.047-0.609 0.5-0.922l26-15q0.547-0.328 1.062 0.031zM22.219 23.594l3.453-20.672-22.406 12.922 5.25 2.141 13.484-9.984-7.469 12.453z"></path>
</symbol>
<symbol id="icon-share-alt" viewBox="0 0 24 28">
<title>share-alt</title>
<path class="path1" d="M19 16q2.078 0 3.539 1.461t1.461 3.539-1.461 3.539-3.539 1.461-3.539-1.461-1.461-3.539q0-0.187 0.031-0.531l-5.625-2.812q-1.437 1.344-3.406 1.344-2.078 0-3.539-1.461t-1.461-3.539 1.461-3.539 3.539-1.461q1.969 0 3.406 1.344l5.625-2.812q-0.031-0.344-0.031-0.531 0-2.078 1.461-3.539t3.539-1.461 3.539 1.461 1.461 3.539-1.461 3.539-3.539 1.461q-1.969 0-3.406-1.344l-5.625 2.812q0.031 0.344 0.031 0.531t-0.031 0.531l5.625 2.812q1.437-1.344 3.406-1.344z"></path>
</symbol>
<symbol id="icon-twitch" viewBox="0 0 28 28">
<title>twitch</title>
<path class="path1" d="M14 6.781v6.781h-2.266v-6.781h2.266zM20.219 6.781v6.781h-2.266v-6.781h2.266zM20.219 18.656l3.953-3.969v-12.422h-18.656v16.391h5.094v3.391l3.391-3.391h6.219zM26.437 0v15.828l-6.781 6.781h-5.094l-3.391 3.391h-3.391v-3.391h-6.219v-18.094l1.703-4.516h23.172z"></path>
</symbol>
<symbol id="icon-pinterest-p" viewBox="0 0 20 28">
<title>pinterest-p</title>
<path class="path1" d="M0 9.328q0-1.687 0.586-3.18t1.617-2.602 2.375-1.922 2.891-1.219 3.156-0.406q2.469 0 4.594 1.039t3.453 3.023 1.328 4.484q0 1.5-0.297 2.938t-0.938 2.766-1.563 2.336-2.266 1.609-2.953 0.602q-1.062 0-2.109-0.5t-1.5-1.375q-0.156 0.609-0.438 1.758t-0.367 1.484-0.32 1.109-0.406 1.109-0.5 0.977-0.719 1.211-0.969 1.352l-0.219 0.078-0.141-0.156q-0.234-2.453-0.234-2.938 0-1.437 0.336-3.227t1.039-4.492 0.812-3.172q-0.5-1.016-0.5-2.641 0-1.297 0.812-2.438t2.063-1.141q0.953 0 1.484 0.633t0.531 1.602q0 1.031-0.688 2.984t-0.688 2.922q0 0.984 0.703 1.633t1.703 0.648q0.859 0 1.594-0.391t1.227-1.062 0.875-1.484 0.594-1.727 0.313-1.734 0.102-1.555q0-2.703-1.711-4.211t-4.461-1.508q-3.125 0-5.219 2.023t-2.094 5.133q0 0.688 0.195 1.328t0.422 1.016 0.422 0.711 0.195 0.477q0 0.438-0.234 1.141t-0.578 0.703q-0.031 0-0.266-0.047-0.797-0.234-1.414-0.875t-0.953-1.477-0.508-1.687-0.172-1.664z"></path>
</symbol>
<symbol id="icon-whatsapp" viewBox="0 0 24 28">
<title>whatsapp</title>
<path class="path1" d="M15.391 15.219q0.203 0 1.523 0.688t1.398 0.828q0.031 0.078 0.031 0.234 0 0.516-0.266 1.188-0.25 0.609-1.109 1.023t-1.594 0.414q-0.891 0-2.969-0.969-1.531-0.703-2.656-1.844t-2.312-2.891q-1.125-1.672-1.109-3.031v-0.125q0.047-1.422 1.156-2.469 0.375-0.344 0.812-0.344 0.094 0 0.281 0.023t0.297 0.023q0.297 0 0.414 0.102t0.242 0.43q0.125 0.313 0.516 1.375t0.391 1.172q0 0.328-0.539 0.898t-0.539 0.727q0 0.109 0.078 0.234 0.531 1.141 1.594 2.141 0.875 0.828 2.359 1.578 0.187 0.109 0.344 0.109 0.234 0 0.844-0.758t0.812-0.758zM12.219 23.5q1.984 0 3.805-0.781t3.133-2.094 2.094-3.133 0.781-3.805-0.781-3.805-2.094-3.133-3.133-2.094-3.805-0.781-3.805 0.781-3.133 2.094-2.094 3.133-0.781 3.805q0 3.172 1.875 5.75l-1.234 3.641 3.781-1.203q2.469 1.625 5.391 1.625zM12.219 1.906q2.391 0 4.57 0.938t3.758 2.516 2.516 3.758 0.938 4.57-0.938 4.57-2.516 3.758-3.758 2.516-4.57 0.938q-3.047 0-5.703-1.469l-6.516 2.094 2.125-6.328q-1.687-2.781-1.687-6.078 0-2.391 0.938-4.57t2.516-3.758 3.758-2.516 4.57-0.938z"></path>
</symbol>
<symbol id="icon-hand-spock-o" viewBox="0 0 30 28">
<title>hand-spock-o</title>
<path class="path1" d="M12.75 2q-0.75 0-1.242 0.531t-0.492 1.281q0 0.219 0.047 0.437l2.344 9.75h-0.406l-1.813-7.531q-0.141-0.594-0.617-0.969t-1.086-0.375q-0.734 0-1.234 0.531t-0.5 1.266q0 0.172 0.063 0.453 0.047 0.203 0.609 2.516t1.062 4.406 0.5 2.156v3.547l-4.797-3.594q-0.531-0.406-1.203-0.406-0.812 0-1.398 0.57t-0.586 1.383q0 1.047 0.875 1.719l7.922 5.922q0.531 0.406 1.188 0.406h10.844q0.516 0 0.922-0.32t0.531-0.82l1.563-6.266q0.125-0.469 0.156-1.375t0.141-1.344l1.813-7.469q0.047-0.187 0.047-0.406 0-0.719-0.516-1.234t-1.25-0.516q-0.594 0-1.078 0.398t-0.625 0.977l-1.547 6.375h-0.406l2.063-8.547q0.047-0.219 0.047-0.438 0-0.734-0.5-1.25t-1.25-0.516q-0.594 0-1.070 0.375t-0.617 0.969l-2.266 9.406h-1.984l-2.562-10.656q-0.141-0.594-0.617-0.969t-1.070-0.375zM22.828 28h-10.844q-1.328 0-2.391-0.797l-7.922-5.938q-0.781-0.594-1.227-1.469t-0.445-1.844q0-1.641 1.172-2.797t2.812-1.156q0.391 0 0.773 0.086t0.648 0.172 0.641 0.32 0.547 0.359 0.602 0.461 0.586 0.445l-1.922-8q-0.109-0.547-0.109-0.922 0-1.453 0.938-2.531t2.375-1.234q0.219-1.359 1.258-2.258t2.43-0.898q1.297 0 2.312 0.805t1.328 2.070l1.609 6.687 1.297-5.437q0.313-1.266 1.328-2.070t2.312-0.805q1.359 0 2.383 0.844t1.289 2.172q1.453 0.156 2.422 1.219t0.969 2.516q0 0.469-0.109 0.891l-1.813 7.453q-0.078 0.344-0.078 1.047 0 0.797-0.203 1.687l-1.578 6.266q-0.297 1.172-1.242 1.914t-2.148 0.742z"></path>
</symbol>
<symbol id="icon-trademark" viewBox="0 0 31 28">
<title>trademark</title>
<path class="path1" d="M13.391 8.5v1.828q0 0.203-0.148 0.344t-0.352 0.141h-4.656v12.688q0 0.203-0.141 0.352t-0.344 0.148h-2.109q-0.203 0-0.352-0.141t-0.148-0.359v-12.688h-4.641q-0.203 0-0.352-0.141t-0.148-0.344v-1.828q0-0.219 0.141-0.359t0.359-0.141h12.391q0.203 0 0.352 0.148t0.148 0.352zM29.609 8.453l1.203 15.016q0.016 0.203-0.125 0.375-0.156 0.156-0.359 0.156h-2.094q-0.187 0-0.328-0.133t-0.156-0.32l-0.719-9.188-2.953 6.641q-0.125 0.297-0.453 0.297h-1.875q-0.313 0-0.453-0.297l-2.938-6.672-0.703 9.219q-0.016 0.187-0.156 0.32t-0.328 0.133h-2.109q-0.203 0-0.359-0.156-0.141-0.156-0.141-0.375l1.219-15.016q0.016-0.187 0.156-0.32t0.328-0.133h2.219q0.313 0 0.453 0.297l3.437 8.125q0.156 0.375 0.313 0.797 0.047-0.109 0.148-0.383t0.164-0.414l3.453-8.125q0.141-0.297 0.453-0.297h2.203q0.203 0 0.344 0.133t0.156 0.32z"></path>
</symbol>
<symbol id="icon-registered" viewBox="0 0 28 28">
<title>registered</title>
<path class="path1" d="M16.281 10.984q0-1.375-0.938-1.891-0.516-0.281-1.828-0.281h-1.922v4.391h2.531q1.031 0 1.594-0.578t0.562-1.641zM17.094 15.437l3.203 5.828q0.125 0.266-0.016 0.484-0.125 0.25-0.422 0.25h-2.375q-0.313 0-0.438-0.266l-3.031-5.703h-2.422v5.469q0 0.219-0.141 0.359t-0.359 0.141h-2.094q-0.219 0-0.359-0.141t-0.141-0.359v-15q0-0.219 0.141-0.359t0.359-0.141h4.594q2 0 2.969 0.375 1.328 0.484 2.094 1.703t0.766 2.812q0 1.437-0.664 2.586t-1.805 1.711q0.094 0.156 0.141 0.25zM14 2.5q-2.344 0-4.469 0.914t-3.664 2.453-2.453 3.664-0.914 4.469 0.914 4.469 2.453 3.664 3.664 2.453 4.469 0.914 4.469-0.914 3.664-2.453 2.453-3.664 0.914-4.469-0.914-4.469-2.453-3.664-3.664-2.453-4.469-0.914zM28 14q0 2.844-1.109 5.437t-2.984 4.469-4.469 2.984-5.437 1.109-5.437-1.109-4.469-2.984-2.984-4.469-1.109-5.437 1.109-5.437 2.984-4.469 4.469-2.984 5.437-1.109 5.437 1.109 4.469 2.984 2.984 4.469 1.109 5.437z"></path>
</symbol>
<symbol id="icon-creative-commons" viewBox="0 0 28 28">
<title>creative-commons</title>
<path class="path1" d="M9.453 19.266q2.391 0 4.016-1.625 0.219-0.281 0.047-0.562l-0.703-1.281q-0.094-0.203-0.375-0.266-0.25-0.031-0.422 0.172l-0.063 0.047q-0.063 0.063-0.18 0.156t-0.273 0.203-0.367 0.227-0.445 0.211-0.523 0.148-0.586 0.055q-1.188 0-1.953-0.781t-0.766-1.984q0-1.188 0.75-1.961t1.906-0.773q0.578 0 1.117 0.219t0.789 0.438l0.25 0.219q0.172 0.172 0.406 0.156 0.25-0.031 0.375-0.219l0.828-1.219q0.203-0.313-0.031-0.609-0.047-0.063-0.172-0.187t-0.469-0.367-0.758-0.438-1.055-0.352-1.344-0.156q-2.312 0-3.844 1.508t-1.531 3.758q0 2.281 1.516 3.773t3.859 1.492zM19.297 19.266q2.391 0 4.016-1.625 0.219-0.281 0.063-0.562l-0.703-1.281q-0.125-0.219-0.391-0.266-0.25-0.031-0.422 0.172l-0.063 0.047q-0.063 0.063-0.18 0.156t-0.273 0.203-0.367 0.227-0.445 0.211-0.523 0.148-0.586 0.055q-1.188 0-1.953-0.781t-0.766-1.984q0-1.188 0.75-1.961t1.906-0.773q0.578 0 1.117 0.219t0.789 0.438l0.25 0.219q0.172 0.172 0.406 0.156 0.25-0.031 0.375-0.219l0.828-1.219q0.203-0.313-0.031-0.609-0.047-0.063-0.172-0.187t-0.469-0.367-0.758-0.438-1.055-0.352-1.344-0.156q-2.297 0-3.836 1.508t-1.539 3.758q0 2.281 1.516 3.773t3.859 1.492zM14 2.5q-2.344 0-4.469 0.914t-3.664 2.453-2.453 3.664-0.914 4.469 0.914 4.469 2.453 3.664 3.664 2.453 4.469 0.914 4.469-0.914 3.664-2.453 2.453-3.664 0.914-4.469-0.914-4.469-2.453-3.664-3.664-2.453-4.469-0.914zM14 0q2.844 0 5.437 1.109t4.469 2.984 2.984 4.469 1.109 5.437-1.109 5.437-2.984 4.469-4.469 2.984-5.437 1.109-5.437-1.109-4.469-2.984-2.984-4.469-1.109-5.437 1.109-5.437 2.984-4.469 4.469-2.984 5.437-1.109z"></path>
</symbol>
<symbol id="icon-safari" viewBox="0 0 28 28">
<title>safari</title>
<path class="path1" d="M14.828 13.953q0 0.406-0.258 0.703t-0.648 0.297q-0.406 0-0.703-0.258t-0.297-0.648q0-0.406 0.266-0.703t0.656-0.297 0.688 0.258 0.297 0.648zM15.062 14.859l5.469-9.078q-0.141 0.125-1.055 0.977t-1.961 1.82-2.133 1.984-1.828 1.727-0.789 0.805l-5.453 9.063q0.109-0.109 1.047-0.969t1.969-1.82 2.125-1.984 1.828-1.734 0.781-0.789zM25.172 14q0 3.141-1.625 5.797-0.047-0.031-0.266-0.172t-0.414-0.258-0.258-0.117q-0.203 0-0.203 0.203 0 0.156 0.922 0.688-1.156 1.75-2.883 2.977t-3.773 1.727l-0.25-1.047q-0.016-0.156-0.234-0.156-0.078 0-0.125 0.086t-0.031 0.148l0.25 1.062q-1.125 0.234-2.281 0.234-3.109 0-5.812-1.641 0.016-0.031 0.203-0.32t0.336-0.523 0.148-0.297q0-0.203-0.203-0.203-0.094 0-0.266 0.227t-0.352 0.539-0.211 0.359q-1.766-1.172-3-2.93t-1.719-3.82l1.078-0.234q0.156-0.047 0.156-0.234 0-0.078-0.086-0.125t-0.164-0.031l-1.062 0.234q-0.219-1.125-0.219-2.172 0-3.219 1.703-5.922 0.031 0.016 0.289 0.187t0.469 0.297 0.273 0.125q0.203 0 0.203-0.187 0-0.094-0.195-0.242t-0.508-0.336l-0.313-0.187q1.203-1.75 2.953-2.953t3.813-1.672l0.234 1.047q0.031 0.156 0.234 0.156 0.078 0 0.125-0.086t0.031-0.164l-0.234-1.031q1.109-0.203 2.094-0.203 3.187 0 5.922 1.703-0.609 0.875-0.609 1.016 0 0.203 0.187 0.203 0.172 0 0.75-1 1.734 1.172 2.93 2.906t1.68 3.766l-0.875 0.187q-0.156 0.031-0.156 0.25 0 0.078 0.086 0.125t0.148 0.031l0.891-0.203q0.219 1.125 0.219 2.188zM26.5 14q0-2.547-0.992-4.859t-2.664-3.984-3.984-2.664-4.859-0.992-4.859 0.992-3.984 2.664-2.664 3.984-0.992 4.859 0.992 4.859 2.664 3.984 3.984 2.664 4.859 0.992 4.859-0.992 3.984-2.664 2.664-3.984 0.992-4.859zM28 14q0 2.844-1.109 5.437t-2.984 4.469-4.469 2.984-5.437 1.109-5.437-1.109-4.469-2.984-2.984-4.469-1.109-5.437 1.109-5.437 2.984-4.469 4.469-2.984 5.437-1.109 5.437 1.109 4.469 2.984 2.984 4.469 1.109 5.437z"></path>
</symbol>
<symbol id="icon-chrome" viewBox="0 0 28 28">
<title>chrome</title>
<path class="path1" d="M13.953 0q3.75-0.031 7.047 1.875 3.625 2.094 5.5 5.812l-11.594-0.609q-2.5-0.141-4.594 1.164t-2.891 3.586l-4.312-6.625q2-2.484 4.859-3.836t5.984-1.367zM2.281 6.328l5.266 10.359q1.125 2.234 3.297 3.391t4.578 0.703l-3.594 7.047q-3.313-0.516-6.016-2.461t-4.258-4.937-1.555-6.43q0-4.172 2.281-7.672zM27.062 8.969q0.906 2.344 0.93 4.852t-0.758 4.781-2.391 4.25-3.844 3.273q-3.594 2.078-7.781 1.859l6.328-9.734q1.375-2.047 1.289-4.539t-1.664-4.336zM14 9.281q1.953 0 3.336 1.383t1.383 3.336-1.383 3.336-3.336 1.383-3.336-1.383-1.383-3.336 1.383-3.336 3.336-1.383z"></path>
</symbol>
<symbol id="icon-firefox" viewBox="0 0 28 28">
<title>firefox</title>
<path class="path1" d="M14.109 28q-4.422 0-7.883-2.352t-5.148-6.227q-0.906-2.047-1.047-4.703t0.406-5.195 1.734-4.875 2.797-3.789l-0.172 4.391q0.172-0.219 1.062-0.242t1.094 0.242q0.656-1.266 2.508-2.156t3.664-0.922q-0.844 0.703-1.867 2.32t-0.914 2.555q0.391 0.125 0.977 0.211t0.984 0.117 1.062 0.063 0.789 0.047q0.234 0.078 0.148 0.711t-0.477 1.18q-0.078 0.109-0.258 0.289t-0.883 0.555-1.578 0.531l0.234 2.953-2.172-1.047q-0.281 0.672-0.117 1.273t0.562 1.039 1.023 0.648 1.266 0.102q0.797-0.141 1.531-0.539t1.305-0.703 1.148-0.273q0.953 0.063 1.398 0.516t0.305 1.016q-0.016 0.031-0.039 0.086t-0.133 0.195-0.281 0.242-0.492 0.164-0.727 0.016q-0.938 1.484-2.258 2.117t-3.273 0.461q1.156 0.953 2.539 1.289t2.633 0.094 2.414-0.812 2-1.367 1.258-1.625q0.672-1.422 0.609-3.008t-0.586-2.945-1.227-1.953q1.359 0.594 2.141 1.242t1.203 1.758q0.234-2.656-0.898-5.359t-3.273-4.438q4.141 1.203 6.438 4.367t2.359 8.086q0.031 1.984-0.633 3.984t-1.93 3.719-2.953 3.063-3.867 2.117-4.508 0.773z"></path>
</symbol>
<symbol id="icon-opera" viewBox="0 0 28 28">
<title>opera</title>
<path class="path1" d="M23.328 3.563q-2.578-1.719-5.609-1.719-2.422 0-4.578 1.141t-3.75 3.125q-1.172 1.453-1.867 3.406t-0.758 4.156v0.656q0.063 2.203 0.758 4.156t1.867 3.406q1.594 1.984 3.75 3.125t4.578 1.141q3.031 0 5.609-1.719-1.891 1.687-4.289 2.625t-5.039 0.938q-0.453 0-0.672-0.016-2.734-0.125-5.203-1.281t-4.25-3.016-2.828-4.391-1.047-5.297q0-2.844 1.109-5.437t2.984-4.469 4.469-2.984 5.437-1.109h0.047q2.625 0.016 5.008 0.945t4.273 2.617zM28 14q0 3-1.203 5.664t-3.328 4.633q-1.625 0.984-3.469 0.984-2.141 0-3.984-1.313 2.406-0.875 3.961-3.641t1.555-6.328q0-3.547-1.547-6.312t-3.953-3.656q1.859-1.297 3.969-1.297 1.859 0 3.531 1.016 2.109 1.953 3.289 4.609t1.18 5.641z"></path>
</symbol>
<symbol id="icon-internet-explorer" viewBox="0 0 28 28">
<title>internet-explorer</title>
<path class="path1" d="M28 14.641q0 0.875-0.109 1.625h-17.984q0 2.281 1.711 3.82t4.023 1.539q1.547 0 2.898-0.727t2.133-2.039h6.609q-0.875 2.484-2.664 4.391t-4.18 2.945-5.016 1.039q-2.922 0-5.563-1.297-3.563 1.813-6.156 1.813-3.703 0-3.703-4.109 0-1.797 0.703-4.297 0.266-0.938 1.703-3.578 3.109-5.625 7.422-9.469-2.875 1.234-6.672 5.531 0.984-4.281 4.43-7.023t7.836-2.742q0.469 0 0.703 0.016 3.984-1.828 6.766-1.828 1 0 1.813 0.203t1.477 0.633 1.039 1.195 0.375 1.797q0 1.813-1.172 4.469 1.578 2.844 1.578 6.094zM26.906 4.641q0-1.297-0.828-2.063t-2.141-0.766q-1.687 0-3.969 1.094 1.891 0.734 3.477 2.055t2.664 3.055q0.797-2.109 0.797-3.375zM2 23.969q0 1.344 0.758 2.070t2.102 0.727q1.797 0 4.156-1.297-1.906-1.125-3.336-2.859t-2.148-3.828q-1.531 3.203-1.531 5.187zM9.875 12.828h11.375q-0.078-2.219-1.766-3.703t-3.922-1.484q-2.25 0-3.93 1.484t-1.758 3.703z"></path>
</symbol>
<symbol id="icon-edge" viewBox="0 0 28 28">
<title>edge</title>
<path class="path1" d="M1.078 12.422h0.016q0.25-1.969 0.914-3.773t1.797-3.391 2.617-2.75 3.492-1.836 4.32-0.672q3.609 0 6.469 1.648t4.594 4.742q1.625 2.922 1.625 6.906v2.938h-17.578q0.016 1.734 0.836 3.008t2.133 1.914 2.961 0.891 3.328 0.047 3.25-0.727 2.711-1.32v5.891q-1.437 0.859-3.586 1.437t-4.883 0.594-4.937-0.828q-2.953-1.141-4.867-3.891t-1.945-5.812q-0.047-3.781 1.734-6.438t5.078-4.188q-0.75 0.938-1.219 1.961t-0.719 2.492h9.922q0.125-1.203-0.125-2.188t-0.734-1.586-1.102-1.039-1.258-0.641-1.172-0.32-0.875-0.133l-0.344-0.016q-2.109 0.078-4.055 0.695t-3.492 1.633-2.75 2.195-2.156 2.555z"></path>
</symbol>
<symbol id="icon-gitlab" viewBox="0 0 28 28">
<title>gitlab</title>
<path class="path1" d="M1.625 11.031l12.375 15.859-13.563-9.844q-0.281-0.203-0.391-0.539t0-0.664l1.578-4.813zM8.844 11.031h10.313l-5.156 15.859zM5.75 1.469l3.094 9.562h-7.219l3.094-9.562q0.125-0.359 0.516-0.359t0.516 0.359zM26.375 11.031l1.578 4.813q0.109 0.328 0 0.664t-0.391 0.539l-13.563 9.844 12.375-15.859zM26.375 11.031h-7.219l3.094-9.562q0.125-0.359 0.516-0.359t0.516 0.359z"></path>
</symbol>
<symbol id="icon-office" viewBox="0 0 16 16">
<title>office</title>
<path class="path1" d="M0 16h8v-16h-8v16zM5 2h2v2h-2v-2zM5 6h2v2h-2v-2zM5 10h2v2h-2v-2zM1 2h2v2h-2v-2zM1 6h2v2h-2v-2zM1 10h2v2h-2v-2zM9 5h7v1h-7zM9 16h2v-4h3v4h2v-9h-7z"></path>
</symbol>
<symbol id="icon-blog" viewBox="0 0 16 16">
<title>blog</title>
<path class="path1" d="M6 10l2-1 7-7-1-1-7 7-1 2zM4.52 13.548c-0.494-1.043-1.026-1.574-2.069-2.069l1.548-4.262 2-1.217 6-6h-3l-6 6-3 10 10-3 6-6v-3l-6 6-1.217 2z"></path>
</symbol>
<symbol id="icon-book" viewBox="0 0 16 16">
<title>book</title>
<path class="path1" d="M14 2v13h-10.5c-0.829 0-1.5-0.672-1.5-1.5s0.671-1.5 1.5-1.5h9.5v-12h-10c-1.1 0-2 0.9-2 2v12c0 1.1 0.9 2 2 2h12v-14h-1z"></path>
<path class="path2" d="M3.501 13v0c-0 0-0.001 0-0.001 0-0.276 0-0.5 0.224-0.5 0.5s0.224 0.5 0.5 0.5c0 0 0.001-0 0.001-0v0h9.498v-1h-9.498z"></path>
</symbol>
<symbol id="icon-books" viewBox="0 0 18 16">
<title>books</title>
<path class="path1" d="M3.5 2h-3c-0.275 0-0.5 0.225-0.5 0.5v11c0 0.275 0.225 0.5 0.5 0.5h3c0.275 0 0.5-0.225 0.5-0.5v-11c0-0.275-0.225-0.5-0.5-0.5zM3 5h-2v-1h2v1z"></path>
<path class="path2" d="M8.5 2h-3c-0.275 0-0.5 0.225-0.5 0.5v11c0 0.275 0.225 0.5 0.5 0.5h3c0.275 0 0.5-0.225 0.5-0.5v-11c0-0.275-0.225-0.5-0.5-0.5zM8 5h-2v-1h2v1z"></path>
<path class="path3" d="M11.954 2.773l-2.679 1.35c-0.246 0.124-0.345 0.426-0.222 0.671l4.5 8.93c0.124 0.246 0.426 0.345 0.671 0.222l2.679-1.35c0.246-0.124 0.345-0.426 0.222-0.671l-4.5-8.93c-0.124-0.246-0.426-0.345-0.671-0.222z"></path>
</symbol>
<symbol id="icon-portifolio" viewBox="0 0 16 16">
<title>portifolio</title>
<path class="path1" d="M16 5l-8-4-8 4 8 4 8-4zM8 2.328l5.345 2.672-5.345 2.672-5.345-2.672 5.345-2.672zM14.398 7.199l1.602 0.801-8 4-8-4 1.602-0.801 6.398 3.199zM14.398 10.199l1.602 0.801-8 4-8-4 1.602-0.801 6.398 3.199z"></path>
</symbol>
<symbol id="icon-talks" viewBox="0 0 18 16">
<title>talks</title>
<path class="path1" d="M7.5 2c-0.792 0-1.556 0.124-2.272 0.369-0.671 0.23-1.267 0.554-1.773 0.963-0.938 0.759-1.455 1.731-1.455 2.737 0 0.562 0.157 1.109 0.467 1.623 0.323 0.537 0.811 1.028 1.41 1.421 0.476 0.312 0.796 0.812 0.881 1.374 0.014 0.094 0.025 0.188 0.034 0.282 0.043-0.039 0.085-0.080 0.127-0.122 0.377-0.376 0.886-0.583 1.411-0.583 0.084 0 0.167 0.005 0.251 0.016 0.303 0.038 0.611 0.058 0.918 0.058 0.792 0 1.556-0.124 2.272-0.369 0.671-0.23 1.267-0.554 1.774-0.963 0.938-0.759 1.455-1.731 1.455-2.737s-0.517-1.978-1.455-2.737c-0.506-0.41-1.103-0.734-1.774-0.963-0.716-0.245-1.48-0.369-2.272-0.369zM7.5 0v0c4.142 0 7.5 2.717 7.5 6.069s-3.358 6.069-7.5 6.069c-0.398 0-0.788-0.025-1.169-0.074-1.611 1.605-3.471 1.892-5.331 1.935v-0.393c1.004-0.49 1.813-1.382 1.813-2.402 0-0.142-0.011-0.282-0.032-0.419-1.696-1.113-2.781-2.812-2.781-4.717 0-3.352 3.358-6.069 7.5-6.069zM15.563 13.604c0 0.874 0.567 1.639 1.438 2.059v0.337c-1.611-0.036-3.090-0.283-4.487-1.658-0.33 0.041-0.669 0.063-1.013 0.063-1.492 0-2.866-0.402-3.963-1.079 2.261-0.008 4.395-0.732 6.013-2.042 0.816-0.66 1.459-1.435 1.913-2.302 0.481-0.92 0.724-1.9 0.724-2.913 0-0.163-0.007-0.326-0.020-0.487 1.134 0.936 1.832 2.213 1.832 3.62 0 1.633-0.94 3.089-2.41 4.043-0.018 0.117-0.027 0.237-0.027 0.359z"></path>
</symbol>
<symbol id="icon-home" viewBox="0 0 16 16">
<title>home</title>
<path class="path1" d="M16 9.226l-8-6.21-8 6.21v-2.532l8-6.21 8 6.21zM14 9v6h-4v-4h-4v4h-4v-6l6-4.5z"></path>
</symbol>
<symbol id="icon-projects" viewBox="0 0 16 16">
<title>projects</title>
<path class="path1" d="M0 1v14h16v-14h-16zM15 14h-14v-12h14v12zM14 3h-12v10h12v-10zM7 8h-1v1h-1v1h-1v-1h1v-1h1v-1h-1v-1h-1v-1h1v1h1v1h1v1zM11 10h-3v-1h3v1z"></path>
</symbol>
<symbol id="icon-hangouts" viewBox="0 0 16 16">
<title>hangouts</title>
<path class="path1" d="M7.997 0c-3.816 0-6.909 3.094-6.909 6.909 0 3.616 3.294 6.547 6.909 6.547v2.544c4.197-2.128 6.916-5.556 6.916-9.091 0-3.816-3.1-6.909-6.916-6.909zM7 8c0 0.828-0.447 1.5-1 1.5v-1.5h-2v-3h3v3zM12 8c0 0.828-0.447 1.5-1 1.5v-1.5h-2v-3h3v3z"></path>
</symbol>
<symbol id="icon-google-drive" viewBox="0 0 16 16">
<title>google-drive</title>
<path class="path1" d="M6.844 10l-2.884 5h9.072l2.884-5z"></path>
<path class="path2" d="M15.506 9l-4.619-8h-5.775l4.619 8z"></path>
<path class="path3" d="M4.534 2l-4.534 7.856 2.888 5 4.534-7.856z"></path>
</symbol>
<symbol id="icon-telegram" viewBox="0 0 16 16">
<title>telegram</title>
<path class="path1" d="M8 0c-4.419 0-8 3.581-8 8s3.581 8 8 8 8-3.581 8-8-3.581-8-8-8zM11.931 5.484l-1.313 6.184c-0.091 0.441-0.356 0.544-0.725 0.341l-2-1.478-0.959 0.934c-0.112 0.109-0.2 0.2-0.4 0.2-0.259 0-0.216-0.097-0.303-0.344l-0.681-2.237-1.978-0.616c-0.428-0.131-0.431-0.425 0.097-0.634l7.706-2.975c0.35-0.159 0.691 0.084 0.556 0.625z"></path>
</symbol>
<symbol id="icon-rss" viewBox="0 0 16 16">
<title>rss</title>
<path class="path1" d="M2.13 11.733c-1.175 0-2.13 0.958-2.13 2.126 0 1.174 0.955 2.122 2.13 2.122 1.179 0 2.133-0.948 2.133-2.122-0-1.168-0.954-2.126-2.133-2.126zM0.002 5.436v3.067c1.997 0 3.874 0.781 5.288 2.196 1.412 1.411 2.192 3.297 2.192 5.302h3.080c-0-5.825-4.739-10.564-10.56-10.564zM0.006 0v3.068c7.122 0 12.918 5.802 12.918 12.932h3.076c0-8.82-7.176-16-15.994-16z"></path>
</symbol>
<symbol id="icon-onedrive" viewBox="0 0 16 16">
<title>onedrive</title>
<path class="path1" d="M5.482 12.944c-0.942-0.235-1.466-0.984-1.468-2.095-0-0.355 0.025-0.525 0.114-0.754 0.217-0.56 0.793-0.982 1.55-1.138 0.377-0.077 0.493-0.16 0.493-0.353 0-0.060 0.045-0.24 0.1-0.399 0.249-0.724 0.71-1.327 1.202-1.573 0.515-0.258 0.776-0.316 1.399-0.313 0.886 0.005 1.327 0.197 1.945 0.846l0.34 0.357 0.304-0.105c1.473-0.51 2.942 0.358 3.061 1.809l0.032 0.397 0.29 0.104c0.829 0.297 1.218 0.92 1.148 1.837-0.046 0.599-0.326 1.078-0.77 1.315l-0.209 0.112-4.638 0.009c-3.564 0.007-4.697-0.006-4.893-0.055v0zM1.613 12.281c-0.565-0.142-1.164-0.67-1.445-1.273-0.159-0.342-0.168-0.393-0.168-0.998 0-0.576 0.014-0.668 0.14-0.954 0.267-0.603 0.78-1.038 1.422-1.21 0.136-0.036 0.263-0.094 0.283-0.128s0.043-0.221 0.050-0.415c0.045-1.206 0.794-2.269 1.839-2.61 0.565-0.184 1.306-0.202 1.92 0.058 0.195 0.082 0.173 0.1 0.585-0.471 0.244-0.338 0.705-0.695 1.108-0.909 0.435-0.231 0.887-0.337 1.428-0.336 1.512 0.004 2.815 1.003 3.297 2.529 0.154 0.487 0.146 0.624-0.035 0.628-0.079 0.002-0.306 0.048-0.505 0.102l-0.361 0.099-0.329-0.348c-0.928-0.98-2.441-1.192-3.728-0.522-0.514 0.268-0.927 0.652-1.239 1.153-0.222 0.357-0.506 1.024-0.506 1.189 0 0.117-0.090 0.176-0.474 0.309-1.189 0.412-1.883 1.364-1.882 2.582 0 0.443 0.108 0.986 0.258 1.296 0.057 0.117 0.088 0.228 0.070 0.247-0.046 0.049-1.525 0.032-1.73-0.019v0z"></path>
</symbol>
<symbol id="icon-basecamp" viewBox="0 0 16 16">
<title>basecamp</title>
<path class="path1" d="M8 1.666c-2.919 0-5.169 2.444-6.444 4.838-0.719 1.347-1.222 2.822-1.453 4.331-0.025 0.172-0.050 0.344-0.069 0.519-0.009 0.094-0.019 0.188-0.025 0.281-0.009 0.119-0.003 0.156 0.059 0.256 0.187 0.303 0.409 0.584 0.659 0.838 0.512 0.525 1.134 0.928 1.794 1.241 1.503 0.709 3.2 0.966 4.85 1.022 1.703 0.056 3.453-0.084 5.081-0.616 1.391-0.453 2.731-1.244 3.503-2.522 0.084-0.137 0.025-0.341 0.009-0.5-0.019-0.191-0.044-0.378-0.075-0.566-0.056-0.369-0.131-0.731-0.222-1.094-0.181-0.738-0.428-1.463-0.728-2.159-1.088-2.525-3.1-5.219-5.963-5.775-0.322-0.063-0.65-0.094-0.978-0.094zM8.1 13.909c-1.784 0-3.728-0.159-5.334-1.019-0.625-0.334-1.262-0.819-1.563-1.484-0.087-0.194-0.056-0.269-0.016-0.497 0.028-0.147 0.041-0.291 0.106-0.428 0.091-0.191 0.184-0.378 0.281-0.566 0.328-0.634 0.681-1.262 1.091-1.853 0.203-0.291 0.419-0.578 0.669-0.828 0.175-0.175 0.388-0.362 0.634-0.422 0.756-0.181 1.334 0.694 1.794 1.134 0.222 0.213 0.519 0.453 0.85 0.412 0.228-0.028 0.431-0.206 0.594-0.353 0.553-0.497 0.997-1.112 1.456-1.691 0.228-0.284 0.453-0.572 0.7-0.844 0.166-0.184 0.347-0.394 0.569-0.513 0.397-0.216 0.903 0.228 1.178 0.456 0.469 0.391 0.884 0.847 1.281 1.309 0.378 0.441 0.744 0.888 1.066 1.372 0.497 0.75 0.928 1.55 1.322 2.359 0.084 0.175 0.113 0.294 0.144 0.488 0.019 0.106 0.059 0.228 0.044 0.338-0.022 0.153-0.128 0.319-0.206 0.444-0.188 0.297-0.441 0.553-0.719 0.769-1.166 0.903-2.744 1.203-4.178 1.338-0.588 0.056-1.175 0.078-1.762 0.078z"></path>
</symbol>
<symbol id="icon-trello2" viewBox="0 0 16 16">
<title>trello2</title>
<path class="path1" d="M14.5 0h-13c-0.825 0-1.5 0.675-1.5 1.5v13c0 0.825 0.675 1.5 1.5 1.5h13c0.825 0 1.5-0.675 1.5-1.5v-13c0-0.825-0.675-1.5-1.5-1.5zM7 12c0 0.55-0.45 1-1 1h-2c-0.55 0-1-0.45-1-1v-8c0-0.55 0.45-1 1-1h2c0.55 0 1 0.45 1 1v8zM13 9c0 0.55-0.45 1-1 1h-2c-0.55 0-1-0.45-1-1v-5c0-0.55 0.45-1 1-1h2c0.55 0 1 0.45 1 1v5z"></path>
</symbol>
<symbol id="icon-git2" viewBox="0 0 16 16">
<title>git2</title>
<path class="path1" d="M15.698 7.287l-6.986-6.986c-0.402-0.402-1.055-0.402-1.457 0l-1.623 1.623 1.221 1.221c0.196-0.094 0.415-0.146 0.647-0.146 0.828 0 1.5 0.672 1.5 1.5 0 0.232-0.053 0.451-0.146 0.647l2 2c0.196-0.094 0.415-0.146 0.647-0.146 0.828 0 1.5 0.672 1.5 1.5s-0.672 1.5-1.5 1.5-1.5-0.672-1.5-1.5c0-0.232 0.053-0.451 0.146-0.647l-2-2c-0.048 0.023-0.097 0.043-0.147 0.061v4.171c0.583 0.206 1 0.761 1 1.414 0 0.828-0.672 1.5-1.5 1.5s-1.5-0.672-1.5-1.5c0-0.653 0.417-1.208 1-1.414v-4.171c-0.583-0.206-1-0.761-1-1.414 0-0.232 0.053-0.451 0.146-0.647l-1.221-1.221-4.623 4.623c-0.402 0.403-0.402 1.055 0 1.458l6.986 6.986c0.402 0.402 1.054 0.402 1.457 0l6.953-6.953c0.402-0.403 0.402-1.055-0-1.458z"></path>
</symbol>
<symbol id="icon-svg" viewBox="0 0 16 16">
<title>svg</title>
<path class="path1" d="M14.5 6.5c-0.444 0-0.843 0.193-1.118 0.5h-2.968l2.099-2.099c0.411 0.023 0.83-0.123 1.144-0.437 0.586-0.586 0.586-1.536 0-2.121s-1.536-0.586-2.121 0c-0.314 0.314-0.46 0.733-0.437 1.144l-2.099 2.099v-2.968c0.307-0.275 0.5-0.674 0.5-1.118 0-0.828-0.672-1.5-1.5-1.5s-1.5 0.672-1.5 1.5c0 0.444 0.193 0.843 0.5 1.118v2.968l-2.099-2.099c0.023-0.411-0.123-0.83-0.437-1.144-0.586-0.586-1.536-0.586-2.121 0s-0.586 1.536 0 2.121c0.314 0.314 0.733 0.46 1.144 0.437l2.099 2.099h-2.968c-0.275-0.307-0.674-0.5-1.118-0.5-0.828 0-1.5 0.672-1.5 1.5s0.672 1.5 1.5 1.5c0.444 0 0.843-0.193 1.118-0.5h2.968l-2.099 2.099c-0.411-0.023-0.83 0.123-1.144 0.437-0.586 0.586-0.586 1.536 0 2.121s1.536 0.586 2.121 0c0.314-0.314 0.46-0.733 0.437-1.144l2.099-2.099v2.968c-0.307 0.275-0.5 0.674-0.5 1.118 0 0.828 0.672 1.5 1.5 1.5s1.5-0.672 1.5-1.5c0-0.444-0.193-0.843-0.5-1.118v-2.968l2.099 2.099c-0.023 0.411 0.123 0.83 0.437 1.144 0.586 0.586 1.536 0.586 2.121 0s0.586-1.536 0-2.121c-0.314-0.314-0.733-0.46-1.144-0.437l-2.099-2.099h2.968c0.275 0.307 0.674 0.5 1.118 0.5 0.828 0 1.5-0.672 1.5-1.5s-0.672-1.5-1.5-1.5z"></path>
</symbol>
</defs>
</svg>
