<svg id="Layer_1" data-name="Layer 1" xmlns="http://www.w3.org/2000/svg" viewBox="0 0 824 530"><defs><style>.cls-1,.cls-5{fill:#6c150e;}.cls-1,.cls-2{fill-rule:evenodd;}.cls-2,.cls-3,.cls-4{fill:#111;}.cls-3{font-size:67.17px;font-family:HelveticaNeueLTStd-Md, Helvetica Neue LT Std;letter-spacing:-0.01em;}.cls-4{font-size:59.16px;font-family:HelveticaNeueLTStd-Lt, Helvetica Neue LT Std;letter-spacing:-0.04em;}.cls-6{letter-spacing:-0.04em;}</style></defs><title>2018 logo igarape</title><path class="cls-1" d="M543.8,207.07c-8.79,11-17.54,21.14-29.05,47.78-1.45,3.35-5,9.67-9.22,16.93q3.19-2.5,6.18-5.25c2.47-4.36,4.42-8,5.4-10.27,10-23.18,17.94-33.88,25.61-43.5q.62-2.82,1.08-5.7Zm1.28-19.45c0,1,0,1.94,0,2.91,0,.31,0,.63,0,.94C531.81,212.51,521,217,504.66,255c-2.1,4.86-8.66,16-15.26,27.19q-2.21,1.15-4.48,2.19c7.26-12.29,15.05-25.4,17.38-30.79,17.09-39.55,28.07-42.77,42.18-66.28l.6.36ZM473,288.92q-1.91.6-3.85,1.13c8-13.66,18-30.16,20.67-36.38C507,214.12,517.93,210.9,532,187.38l2.35,1.41c-14.11,23.51-25.09,26.74-42.18,66.28-2.52,5.84-11.46,20.73-19.18,33.84Zm-14.38,3.41c-1.15.19-2.31.36-3.48.51,8.24-14.1,19.38-32.42,22.24-39.05,17.09-39.55,28.07-42.77,42.18-66.28l2.35,1.41c-14.11,23.51-25.09,26.74-42.18,66.28-2.74,6.33-13,23.33-21.12,37.13Zm-13.12,1.28c-1.07,0-2.14.06-3.22.06,8.27-14.19,19.74-33,22.66-39.77,17.09-39.55,28.07-42.77,42.18-66.28l2.35,1.41c-14.11,23.51-25.09,26.74-42.18,66.28-2.81,6.51-13.61,24.3-21.79,38.29Zm-12.2-.3q-1.51-.13-3-.3c8.23-14.09,19.34-32.37,22.2-39,17.09-39.55,28.07-42.77,42.18-66.28l2.35,1.41c-14.11,23.51-25.09,26.74-42.18,66.28-2.79,6.45-13.39,23.94-21.55,37.87Zm-11.44-1.6q-1.42-.28-2.83-.6c8.08-13.77,18.29-30.66,21-37,17.09-39.55,28.07-42.77,42.18-66.28l2.35,1.41c-14.11,23.51-25.09,26.74-42.18,66.28-2.67,6.18-12.54,22.54-20.54,36.15ZM411.13,289q-1.34-.42-2.67-.88c7.72-13.1,16.65-28,19.18-33.83,17.09-39.55,28.07-42.77,42.18-66.28l2.35,1.41c-14.11,23.51-25.09,26.74-42.18,66.28-2.49,5.76-11.21,20.33-18.86,33.3ZM401,285.21q-1.27-.55-2.52-1.13c7.07-12,14.47-24.45,16.72-29.68,17.09-39.55,28.07-42.77,42.18-66.28l2.35,1.41c-14.11,23.51-25.09,26.74-42.18,66.28C415.3,261,408,273.33,401,285.21Zm-9.57-4.75q-1.2-.67-2.37-1.38c6-10.25,11.76-20.08,13.7-24.56,17.09-39.55,28.07-42.77,42.18-66.28l2.35,1.41c-14.11,23.51-25.09,26.74-42.18,66.28-1.93,4.48-7.64,14.28-13.68,24.52Zm-9-5.71q-1.13-.8-2.23-1.62c4.62-7.9,8.58-14.9,10.13-18.48,17.09-39.55,28.07-42.77,42.18-66.28l2.35,1.41c-14.11,23.51-25.09,26.74-42.18,66.28-1.56,3.61-5.58,10.71-10.25,18.69ZM373.91,268q-1.06-.93-2.08-1.88c2.77-4.86,5-8.93,6-11.39C395,215.21,405.93,212,420,188.48l2.35,1.41c-14.11,23.51-25.09,26.74-42.18,66.28-1.1,2.54-3.41,6.79-6.3,11.86Zm-8-7.87q-1-1.08-2-2.19c.62-1.2,1.12-2.24,1.49-3.09,17.09-39.55,28.07-42.77,42.18-66.28L410,190c-14.11,23.51-25.09,26.74-42.18,66.28-.44,1-1.09,2.34-1.89,3.87ZM358,250.43q-.92-1.29-1.8-2.61C371.49,215,381.8,211,395,189l2.5,1.17c-13.36,22.27-23.92,26.34-39.51,60.29Zm-6.73-10.75c-.53-1-1-2-1.53-2.94,12.2-22.41,21.56-28.16,33-47.17l2.35,1.41c-11.67,19.44-21.19,25-33.8,48.7ZM346,228.34c-.41-1-.8-2.11-1.18-3.18,8.81-13.08,16.51-19.83,25.47-34.76l2.35,1.41c-9.36,15.6-17.34,22.27-26.64,36.53Zm-3.83-11.78q-.43-1.67-.81-3.36c5.4-6.76,10.68-13,16.49-22.68l2.35,1.41c-6.36,10.61-12.09,17.08-18,24.63ZM339.7,204c-.17-1.34-.32-2.68-.44-4,2-2.79,4-5.83,6.12-9.33l2.35,1.41a140,140,0,0,1-8,11.94Z"/><path class="cls-2" d="M442,87.38l2.21,0c8.19,13.32,18.09,29.06,20.84,35.09,17.37,38.13,28.29,42,42.28,63.58q4.76,0,9.29.07c-13.59-20.46-24.42-24.94-41.45-62.31-2.79-6.13-13-22.3-21.26-35.76,1.17.13,2.34.28,3.5.46,8,13,17.41,28,20.08,33.84,17.44,38.27,28.37,42.05,42.43,63.82q4.87.08,9.39.22c-13.72-20.79-24.57-25.1-41.71-62.7C485,118,475.94,103.54,468,90.7q2,.51,3.9,1.1c7.5,12.15,15.55,25.1,18,30.45,17.56,38.54,28.52,42.1,42.73,64.28,3.36.13,6.55.28,9.56.46-13.93-21.4-24.84-25.38-42.17-63.4-2.22-4.88-9.13-16.11-16-27.28q2.31,1,4.57,2.18c6.1,9.9,11.8,19.29,13.78,23.64,17.54,38.48,28.49,42.09,42.67,64.19.06,1.4.09,2.8.09,4.21v.18c-48.57-3.5-152.41,2.15-206.22,3.62,0-1.17-.07-2.34-.07-3.51,29.31-.8,73.55-2.85,115.61-4-2.11-3.19-4.16-6-6.18-8.58-22.42.58-63.54,2.94-75.53,2.35-13.21-.66-24.06-.75-33.38-.48q.14-1.39.31-2.77c9.28-.26,20.07-.17,33.18.48,11.6.58,50.47-1.61,73.28-2.28-2.48-3.08-4.93-5.94-7.41-8.94-22,.89-48.71,2.19-58,1.73-16.17-.8-28.82-.76-39.44-.24q.31-1.4.66-2.79c10.51-.5,23-.52,38.9.27,9,.44,34.17-.76,55.7-1.64-2-2.53-4.1-5.21-6.23-8.25-16.92.71-33.24,1.33-40.09,1a373.93,373.93,0,0,0-45.75.14q.49-1.42,1-2.83a377.06,377.06,0,0,1,44.84-.07c6.58.33,21.92-.24,38.13-.91-1.55-2.32-3.15-4.84-4.79-7.64-10.47.37-19.36.58-24,.35-22.42-1.11-38.06-.6-50.93.56q.69-1.45,1.42-2.88c12.62-1.08,28-1.52,49.62-.44,4.35.22,12.55,0,22.29-.29-1.29-2.29-2.62-4.76-4-7.43-3.72.05-6.78,0-8.92-.06-24.75-1.23-41.24-.48-54.85.94q.93-1.49,1.9-2.94c13.27-1.3,29.39-1.93,53.07-.76,1.84.09,4.38.11,7.43.08-1.24-2.5-2.51-5.18-3.81-8l0-.07c-22.79-.91-38.22-.06-51.17,1.37q1.24-1.53,2.53-3a331.35,331.35,0,0,1,47.21-1.17c-1.18-2.21-2.78-5-4.63-8.1a300.26,300.26,0,0,0-35.25,1.7q1.71-1.59,3.48-3.11a301.37,301.37,0,0,1,30.11-1.36c-1.44-2.39-3-4.93-4.59-7.53-5.46.22-10.38.56-15,1q2.55-1.67,5.21-3.19c2.58-.19,5.27-.36,8.1-.49l-1.76-2.86q1.24-.6,2.5-1.17c6.74,10.92,13.4,21.78,15.58,26.55,17.43,38.25,28.36,42,42.41,63.78l9.1-.22c-13.57-20.39-24.39-24.91-41.39-62.22-2.46-5.41-10.68-18.61-18.26-30.89q1.32-.47,2.66-.91c7.48,12.12,15.49,25,17.92,30.35,17.38,38.15,28.3,42,42.3,63.61l9.13-.17c-13.53-20.28-24.34-24.86-41.31-62.1-2.67-5.86-12.09-20.87-20.13-33.93q1.41-.34,2.83-.64c7.93,12.87,17,27.38,19.63,33.11,17.35,38.09,28.27,42,42.24,63.51l9.16-.11c-13.52-20.24-24.32-24.84-41.28-62.06-2.8-6.15-13-22.39-21.33-35.88,1-.13,2-.23,3-.33,8.15,13.25,17.91,28.77,20.63,34.75,17.35,38.08,28.26,42,42.22,63.49q4.69,0,9.22,0C490.49,165.77,479.68,161.2,462.7,124,459.85,117.7,449.31,101,441,87.39Zm62.65,21.2q3.29,2.52,6.38,5.3c2.39,4.05,4.27,7.42,5.24,9.56,10.21,22.41,18.19,33,25.88,42.28q.7,2.84,1.24,5.74c-8.83-10.57-17.65-20.67-29.45-46.56-1.48-3.25-5-9.32-9.29-16.32Z"/><text class="cls-3" transform="translate(112.69 375.07)">IGARAPÉ INSTITUTE </text><text class="cls-4" transform="translate(215.98 433.45)">a think and <tspan class="cls-5" x="271.79" y="0">do</tspan><tspan class="cls-6" x="334.27" y="0" xml:space="preserve"> tank</tspan></text></svg>